<svg width="24" height="24" viewBox="0 0 24 24" fill="none" xmlns="http://www.w3.org/2000/svg">
<g clip-path="url(#clip0_234_3366)">
<path d="M23.1429 12H9.42859" stroke="#5D40B1" stroke-width="2" stroke-linecap="round" stroke-linejoin="round"/>
<path d="M12.8572 8.57144L9.42859 12L12.8572 15.4286" stroke="#5D40B1" stroke-width="2" stroke-linecap="round" stroke-linejoin="round"/>
<path d="M21.3943 18C20.0966 20.0308 18.1755 21.5861 15.9191 22.4327C13.6627 23.2793 11.1926 23.3715 8.87933 22.6956C6.56607 22.0196 4.53431 20.6118 3.0888 18.6834C1.64329 16.7551 0.861938 14.41 0.861938 12C0.861938 9.59 1.64329 7.24495 3.0888 5.31657C4.53431 3.38819 6.56607 1.98044 8.87933 1.30446C11.1926 0.628474 13.6627 0.720694 15.9191 1.56729C18.1755 2.41388 20.0966 3.96921 21.3943 6.00001" stroke="#5D40B1" stroke-width="2" stroke-linecap="round" stroke-linejoin="round"/>
</g>
<defs>
<clipPath id="clip0_234_3366">
<rect width="24" height="24" fill="white"/>
</clipPath>
</defs>
</svg>
