<svg width="225" height="40" viewBox="0 0 225 40" fill="none" xmlns="http://www.w3.org/2000/svg">
<g style="mix-blend-mode:luminosity" clip-path="url(#clip0_234_4275)">
<path d="M42.225 17.4884C43.3286 16.8703 44.5811 16.5528 45.8524 16.569C47.2545 16.5312 48.6351 16.9131 49.8096 17.6638C50.9123 18.4156 51.6948 19.5376 52.0085 20.8169C52.0627 21.0029 52.177 21.1666 52.3344 21.2835C52.4912 21.3998 52.6826 21.4627 52.8793 21.4626H55.6166C55.7503 21.4642 55.8825 21.4357 56.0031 21.3794C56.1241 21.3237 56.2309 21.242 56.3154 21.1405C56.3999 21.039 56.46 20.9202 56.4913 20.7929C56.5216 20.6651 56.5216 20.5322 56.4913 20.4044C56.173 18.7853 55.4374 17.2728 54.3542 16.0103C53.3237 14.8217 52.0213 13.8879 50.5529 13.2847C49.0916 12.6829 47.5215 12.3754 45.9362 12.3804C44.403 12.3804 42.8849 12.6761 41.4685 13.2505C40.0521 13.825 38.7651 14.6669 37.681 15.7284C36.5969 16.7898 35.737 18.0499 35.1503 19.4367C34.5636 20.8236 34.2616 22.3099 34.2616 23.811C34.2616 25.3121 34.5636 26.7985 35.1503 28.1853C35.737 29.5722 36.5969 30.8323 37.681 31.8937C38.7651 32.9551 40.0521 33.7971 41.4685 34.3715C42.8849 34.946 44.403 35.2416 45.9362 35.2416C47.5205 35.2456 49.0898 34.9412 50.5529 34.3461C52.0695 33.7351 53.406 32.7625 54.4409 31.5169C55.4758 30.2713 56.1762 28.7921 56.4784 27.2139C56.5079 27.086 56.5079 26.9533 56.4784 26.8254C56.4474 26.6981 56.3871 26.5794 56.3019 26.4785C56.2179 26.3768 56.1114 26.2949 55.9905 26.239C55.8696 26.1831 55.7374 26.1546 55.6038 26.1557H52.8497C52.653 26.156 52.4619 26.2193 52.3054 26.3359C52.1489 26.4525 52.0356 26.616 51.9828 26.8014C51.6646 28.0767 50.8811 29.1941 49.78 29.9432C48.6127 30.6932 47.2392 31.076 45.8434 31.0404C44.5722 31.0583 43.3195 30.7416 42.216 30.1235C41.1444 29.5192 40.2633 28.6378 39.6693 27.5758C39.0268 26.4267 38.7014 25.1335 38.7251 23.8236C38.7048 22.5146 39.03 21.2226 39.6693 20.0727C40.2631 18.9982 41.1472 18.1042 42.225 17.4884Z" fill="#696969"/>
<path d="M72.6465 13.3594C72.5767 13.1996 72.4608 13.0632 72.3129 12.9671C72.165 12.8714 71.9916 12.8205 71.8144 12.8208H69.2316C69.0544 12.8207 68.8811 12.8717 68.7333 12.9675C68.5855 13.0633 68.4699 13.1996 68.4008 13.3594L59.6413 33.5984C59.5833 33.732 59.5598 33.8776 59.573 34.0222C59.5869 34.1676 59.6378 34.3072 59.7212 34.4283C59.8031 34.5502 59.9146 34.6503 60.0458 34.7197C60.1766 34.7892 60.3233 34.8252 60.4722 34.8244H63.328C63.5063 34.8254 63.6809 34.774 63.8291 34.6768C63.9777 34.5804 64.0938 34.443 64.1627 34.282L65.8901 30.2398H75.1236L76.8511 34.282C76.9198 34.4429 77.0356 34.5803 77.1839 34.6768C77.3322 34.7733 77.5064 34.8246 77.6845 34.8244H80.5403C80.6896 34.8253 80.8367 34.7893 80.968 34.7197C81.0989 34.6501 81.2104 34.5501 81.2926 34.4285C81.3748 34.3069 81.4252 34.1674 81.4395 34.0222C81.4538 33.8776 81.4303 33.7317 81.3712 33.5984L72.6465 13.3594ZM73.4194 26.2492H67.6085L70.5172 19.4688L73.4194 26.2492Z" fill="#696969"/>
<path d="M100.718 14.1903C98.819 13.2557 96.7165 12.7869 94.5914 12.8243H87.0493C86.8101 12.8243 86.5808 12.9174 86.4117 13.0829C86.2426 13.2485 86.1476 13.4731 86.1476 13.7072V33.9501C86.1476 34.1842 86.2426 34.4088 86.4117 34.5744C86.5808 34.7399 86.8101 34.833 87.0493 34.833H94.634C96.7516 34.8708 98.8467 34.402 100.737 33.467C102.485 32.5833 103.937 31.2261 104.919 29.5572C105.92 27.8027 106.429 25.8204 106.396 23.811C106.432 21.8068 105.92 19.8297 104.915 18.0837C103.925 16.4195 102.468 15.0683 100.718 14.1903ZM101.868 23.8766C101.899 25.1424 101.595 26.3946 100.986 27.5115C100.413 28.5086 99.5528 29.3184 98.5126 29.8397C97.2832 30.4319 95.925 30.7219 94.5554 30.6847H90.5621V16.9372H94.4961C95.8753 16.9021 97.2421 17.1992 98.4765 17.8024C99.5289 18.3382 100.395 19.1678 100.965 20.1862C101.581 21.32 101.892 22.5888 101.868 23.8728V23.8766Z" fill="#696969"/>
<path d="M128.922 12.8027H126.234C125.995 12.8027 125.766 12.8958 125.597 13.0613C125.428 13.2269 125.333 13.4515 125.333 13.6856V25.9562C125.346 26.8669 125.137 27.7677 124.723 28.5833C124.34 29.3322 123.747 29.959 123.014 30.3907C122.202 30.8327 121.287 31.0628 120.358 31.0591C119.429 31.0553 118.516 30.8178 117.708 30.3693C116.978 29.9328 116.389 29.302 116.01 28.5506C115.604 27.7276 115.4 26.8233 115.414 25.9095V13.6856C115.414 13.4515 115.319 13.2269 115.15 13.0613C114.981 12.8958 114.751 12.8027 114.512 12.8027H111.83C111.591 12.8027 111.362 12.8958 111.193 13.0613C111.024 13.2269 110.929 13.4515 110.929 13.6856V26.1C110.898 27.7752 111.329 29.4276 112.178 30.8826C112.992 32.2529 114.18 33.3734 115.61 34.1177C117.102 34.8665 118.756 35.2548 120.433 35.2502C122.11 35.2456 123.762 34.8482 125.25 34.0912C126.669 33.3361 127.843 32.2065 128.638 30.8309C129.461 29.3874 129.88 27.7566 129.852 26.1037V13.6856C129.851 13.5679 129.826 13.4516 129.778 13.3435C129.731 13.2355 129.661 13.1378 129.575 13.0562C129.488 12.9747 129.386 12.9109 129.273 12.8687C129.161 12.8264 129.042 12.8066 128.922 12.8103V12.8027Z" fill="#696969"/>
<path d="M142.981 17.4896C144.084 16.8704 145.337 16.5524 146.608 16.5689C148.01 16.5319 149.389 16.9138 150.564 17.6637C151.668 18.4143 152.451 19.5368 152.764 20.8168C152.817 21.0028 152.931 21.1668 153.088 21.2834C153.246 21.4001 153.438 21.463 153.635 21.4625H156.371C156.505 21.4627 156.637 21.4339 156.757 21.378C156.878 21.3225 156.985 21.241 157.069 21.1396C157.154 21.0379 157.214 20.919 157.246 20.7915C157.275 20.6636 157.275 20.531 157.246 20.4031C156.925 18.7823 156.187 17.2685 155.102 16.0051C154.071 14.8166 152.768 13.8828 151.299 13.2796C149.839 12.6777 148.269 12.3706 146.684 12.3766C145.151 12.3759 143.634 12.6708 142.217 13.2444C140.801 13.8181 139.514 14.6592 138.43 15.7198C137.346 16.7804 136.486 18.0397 135.899 19.4259C135.311 20.812 135.009 22.2977 135.008 23.7983C135.008 25.2989 135.309 26.7849 135.895 28.1716C136.48 29.5582 137.34 30.8182 138.423 31.8798C139.506 32.9413 140.792 33.7836 142.208 34.3584C143.624 34.9333 145.141 35.2295 146.674 35.2302C148.258 35.2342 149.827 34.9298 151.29 34.3347C152.808 33.7241 154.146 32.7518 155.183 31.5062C156.219 30.2606 156.921 28.7812 157.225 27.2024C157.252 27.0741 157.249 26.9416 157.217 26.8144C157.186 26.6873 157.125 26.5686 157.041 26.4671C156.956 26.3659 156.85 26.2841 156.729 26.2275C156.608 26.172 156.476 26.1436 156.343 26.1442H153.59C153.393 26.1446 153.202 26.2079 153.046 26.3244C152.889 26.441 152.776 26.6045 152.723 26.79C152.405 28.0653 151.621 29.1827 150.52 29.9317C149.352 30.6819 147.978 31.0647 146.582 31.029C145.312 31.0467 144.059 30.73 142.956 30.1121C141.883 29.5071 141 28.626 140.403 27.5644C139.761 26.4149 139.437 25.1218 139.46 23.8122C139.44 22.5029 139.765 21.2107 140.403 20.06C141.006 18.9884 141.897 18.0993 142.981 17.4896Z" fill="#696969"/>
<path d="M177.596 30.6921H167.308V25.6674H176.013C176.252 25.6674 176.482 25.5744 176.651 25.4088C176.82 25.2432 176.915 25.0187 176.915 24.7845V22.5256C176.915 22.2915 176.82 22.0669 176.651 21.9013C176.482 21.7358 176.252 21.6428 176.013 21.6428H167.308V16.9951H177.459C177.698 16.9951 177.927 16.9021 178.096 16.7365C178.265 16.5709 178.36 16.3464 178.36 16.1122V13.7159C178.36 13.4817 178.265 13.2572 178.096 13.0916C177.927 12.926 177.698 12.833 177.459 12.833H163.719C163.48 12.833 163.251 12.926 163.081 13.0916C162.912 13.2572 162.817 13.4817 162.817 13.7159V33.9587C162.817 34.1929 162.912 34.4175 163.081 34.583C163.251 34.7486 163.48 34.8416 163.719 34.8416H177.602C177.841 34.8416 178.07 34.7486 178.239 34.583C178.408 34.4175 178.503 34.1929 178.503 33.9587V31.5801C178.504 31.4637 178.48 31.3484 178.435 31.2408C178.391 31.1331 178.324 31.0353 178.24 30.9532C178.157 30.8707 178.058 30.8051 177.948 30.7602C177.837 30.7143 177.717 30.6911 177.596 30.6921Z" fill="#696969"/>
<path d="M201.044 12.8027H198.354C198.115 12.8027 197.886 12.8958 197.716 13.0613C197.547 13.2269 197.452 13.4515 197.452 13.6856V25.9562C197.465 26.867 197.256 27.7678 196.842 28.5833C196.459 29.3292 195.869 29.9546 195.14 30.3882C194.326 30.8275 193.411 31.0579 192.481 31.0579C191.552 31.0579 190.637 30.8275 189.823 30.3882C189.091 29.952 188.502 29.3207 188.125 28.5682C187.713 27.7443 187.506 26.8367 187.522 25.9196V13.7045C187.522 13.4704 187.427 13.2458 187.258 13.0802C187.089 12.9147 186.859 12.8217 186.62 12.8217H183.943C183.704 12.8217 183.475 12.9147 183.306 13.0802C183.137 13.2458 183.042 13.4704 183.042 13.7045V26.1201C183.012 27.7949 183.444 29.4465 184.291 30.9015C185.105 32.269 186.293 33.3871 187.72 34.1303C189.213 34.8797 190.867 35.2685 192.544 35.2641C194.222 35.2597 195.874 34.8623 197.362 34.105C198.782 33.3478 199.956 32.2161 200.751 30.8384C201.573 29.3946 201.992 27.7641 201.965 26.1113V13.702C201.966 13.5836 201.942 13.4663 201.897 13.3568C201.851 13.2472 201.783 13.1477 201.698 13.0638C201.612 12.9807 201.51 12.9151 201.398 12.8708C201.286 12.8256 201.165 12.8024 201.044 12.8027Z" fill="#696969"/>
<path d="M222.016 23.507C220.555 22.5687 218.667 21.9128 216.41 21.5697C214.58 21.3276 213.222 20.9631 212.377 20.4889C212.073 20.3503 211.817 20.1274 211.641 19.8478C211.465 19.5682 211.377 19.2443 211.388 18.9161C211.376 18.59 211.441 18.2657 211.577 17.9679C211.713 17.6701 211.917 17.4069 212.173 17.1983C212.723 16.7266 213.789 16.4781 215.265 16.4781C216.031 16.4577 216.794 16.5819 217.513 16.8439C218.003 17.0214 218.43 17.3342 218.743 17.7444C219.009 18.1241 219.146 18.5758 219.136 19.0359C219.136 19.2701 219.231 19.4946 219.4 19.6602C219.569 19.8258 219.798 19.9188 220.038 19.9188H222.743C222.982 19.9188 223.211 19.8258 223.38 19.6602C223.549 19.4946 223.644 19.2701 223.644 19.0359C223.67 17.8025 223.327 16.5887 222.655 15.5448C221.935 14.4983 220.917 13.6814 219.727 13.1951C218.327 12.6302 216.822 12.3562 215.307 12.3905C213.726 12.3449 212.153 12.6291 210.692 13.2241C209.519 13.7089 208.525 14.532 207.843 15.5839C207.23 16.585 206.912 17.7327 206.925 18.8997C206.874 20.2546 207.363 21.5759 208.29 22.5838C209.148 23.4823 210.215 24.1657 211.399 24.5765C212.684 25.0192 214.009 25.3435 215.355 25.5452C216.964 25.7835 218.198 26.1518 219.022 26.6399C219.334 26.8076 219.591 27.0589 219.762 27.3642C219.933 27.6696 220.012 28.0165 219.989 28.364C219.989 29.3327 219.659 29.9784 218.97 30.4501C218.197 30.9786 216.991 31.2472 215.414 31.2472C214.556 31.267 213.704 31.1062 212.915 30.7755C212.311 30.5246 211.787 30.1185 211.399 29.6001C211.075 29.1626 210.902 28.6356 210.905 28.0954C210.905 27.8612 210.81 27.6367 210.64 27.4711C210.471 27.3055 210.242 27.2125 210.003 27.2125H207.312C207.073 27.2125 206.843 27.3055 206.674 27.4711C206.505 27.6367 206.41 27.8612 206.41 28.0954C206.413 29.3365 206.77 30.5522 207.441 31.6054C208.192 32.7662 209.264 33.6943 210.532 34.2818C212.063 34.9814 213.739 35.3221 215.427 35.2769C217.03 35.3087 218.626 35.0447 220.129 34.4987C221.424 34.0316 222.548 33.2 223.361 32.1087C224.133 31.0086 224.534 29.6987 224.505 28.364C224.462 26.172 223.638 24.5564 222.016 23.507Z" fill="#696969"/>
<path d="M15.1597 3.04346C15.1547 3.05537 15.1488 3.06692 15.1422 3.07803C15.1489 3.06473 15.1543 3.0541 15.1597 3.04346Z" fill="#696969"/>
<path d="M15.1422 3.07559C15.1488 3.06448 15.1547 3.05293 15.1597 3.04102C15.1543 3.05431 15.1489 3.06495 15.1422 3.07559Z" fill="#696969"/>
<path d="M30.4716 6.27643L27.751 3.26712C27.6043 3.10234 27.4058 2.99007 27.1868 2.94802L27.1391 2.9392L22.4567 2.06516C22.3755 1.82069 22.2276 1.60261 22.029 1.43454C21.8911 1.31722 21.7248 1.23645 21.5459 1.19995H21.5163L15.5818 0.0862748C15.4435 0.0597834 15.3014 0.0597834 15.1631 0.0862748L10.0272 0.969141C9.09976 1.13562 8.64505 2.03489 8.67725 2.8383L8.77644 5.4541L4.70329 4.69736C4.47853 4.66214 4.24815 4.69337 4.04163 4.78707C3.8351 4.88076 3.66182 5.03264 3.54395 5.2233L0.83882 9.25926C0.451085 9.81168 0.331287 10.6592 0.909669 11.3012L9.33678 20.6104L9.94479 36.5272C9.97056 37.2764 10.3686 37.8263 10.9624 37.931L16.9214 39.0421H16.9318C17.0048 39.0552 17.079 39.0615 17.1533 39.0611C17.2476 39.061 17.3416 39.0522 17.4341 39.0346L20.822 38.4481C21.6374 38.3119 22.1333 37.4681 22.1423 36.7315L22.3343 20.5965L30.5463 8.33603C31.001 7.6701 30.9688 6.82002 30.4716 6.27643ZM9.36641 2.31867L14.7135 3.31504C14.6582 3.52068 14.6339 3.73314 14.6414 3.94566L14.8746 10.1547L11.2304 6.11878C11.0836 5.95329 10.8846 5.84055 10.6649 5.79842L10.6146 5.78833L9.40763 5.56383L9.30329 2.80424C9.29667 2.64008 9.318 2.47598 9.36641 2.31867ZM1.36052 9.59223L4.06565 5.55626C4.11541 5.47049 4.18977 5.40087 4.27952 5.35604C4.36926 5.31121 4.47047 5.29312 4.57061 5.30402L9.57638 6.23229C9.55191 6.26256 9.52872 6.29283 9.50682 6.32562L6.80169 10.3616C6.68296 10.5421 6.59588 10.7407 6.54406 10.9493L1.19306 9.9542C1.22952 9.82582 1.286 9.70372 1.36052 9.59223ZM9.81727 20.1992L1.38757 10.8863C1.30815 10.801 1.24685 10.7011 1.20723 10.5924L6.49769 11.5799C6.53451 11.8909 6.66962 12.1828 6.88414 12.4149L14.7689 21.1275L9.81727 20.1992ZM11.0809 37.318C10.6352 37.2423 10.5863 36.6281 10.5824 36.5045L9.98473 20.8652L15.3177 21.8603L15.9205 37.6396C15.9261 37.8447 15.9643 38.0477 16.0339 38.2412L11.0809 37.318ZM15.9914 2.07525C15.787 2.112 15.5924 2.18896 15.4192 2.30147C15.2461 2.41398 15.098 2.55971 14.9841 2.72983L9.7374 1.75111C9.84952 1.66243 9.98226 1.60221 10.1238 1.5758L15.2597 0.69293C15.3237 0.681616 15.3893 0.682472 15.4529 0.695453L19.5622 1.46229L15.9914 2.07525ZM26.0274 3.47648L22.4798 8.76738L22.5378 2.71343L26.0944 3.37684C26.0738 3.4109 26.0493 3.44369 26.0274 3.47648Z" fill="#696969"/>
</g>
<defs>
<clipPath id="clip0_234_4275">
<rect width="224" height="39" fill="white" transform="translate(0.510376 0.0644531)"/>
</clipPath>
</defs>
</svg>
