<svg width="32" height="32" viewBox="0 0 32 32" fill="none" xmlns="http://www.w3.org/2000/svg">
<mask id="path-1-inside-1_356_3452" fill="white">
<path d="M27.0895 5.98914C25.0495 5.06914 22.8628 4.38914 20.5762 4.00247C20.5558 3.99856 20.5347 4.00108 20.5158 4.00968C20.497 4.01828 20.4812 4.03253 20.4708 4.05047C20.1908 4.54247 19.8788 5.1838 19.6602 5.69047C17.2349 5.32812 14.7694 5.32812 12.3442 5.69047C12.1006 5.12895 11.8259 4.58143 11.5215 4.05047C11.5112 4.03231 11.4956 4.01774 11.4767 4.00868C11.4579 3.99963 11.4368 3.99653 11.4162 3.9998C9.13082 4.38647 6.94415 5.06647 4.90282 5.9878C4.88526 5.99517 4.87037 6.00773 4.86015 6.0238C0.710819 12.1238 -0.426514 18.0731 0.132153 23.9478C0.133707 23.9622 0.138173 23.9761 0.145279 23.9887C0.152385 24.0013 0.161982 24.0124 0.173486 24.0211C2.59534 25.7844 5.2966 27.1276 8.16415 27.9945C8.18414 28.0006 8.20552 28.0006 8.2255 27.9944C8.24548 27.9882 8.26313 27.9762 8.27615 27.9598C8.89321 27.1346 9.44002 26.2591 9.91082 25.3425C9.91735 25.3299 9.92112 25.3161 9.92186 25.302C9.92261 25.2879 9.92031 25.2738 9.91512 25.2607C9.90994 25.2475 9.90199 25.2356 9.89182 25.2258C9.88164 25.216 9.86948 25.2085 9.85615 25.2038C8.99483 24.8794 8.16027 24.488 7.36015 24.0331C7.34578 24.0249 7.33366 24.0133 7.3249 23.9992C7.31613 23.9852 7.31099 23.9692 7.30993 23.9527C7.30887 23.9362 7.31193 23.9196 7.31884 23.9046C7.32574 23.8895 7.33627 23.8764 7.34949 23.8665C7.51749 23.7425 7.68549 23.6131 7.84549 23.4838C7.85989 23.4722 7.87724 23.4648 7.8956 23.4624C7.91396 23.4601 7.93262 23.4628 7.94949 23.4705C13.1855 25.8225 18.8562 25.8225 24.0308 23.4705C24.0477 23.4624 24.0666 23.4592 24.0852 23.4614C24.1038 23.4635 24.1215 23.4708 24.1362 23.4825C24.2962 23.6131 24.4628 23.7425 24.6322 23.8665C24.6455 23.8762 24.6562 23.8892 24.6633 23.9041C24.6704 23.919 24.6738 23.9354 24.673 23.952C24.6722 23.9685 24.6673 23.9845 24.6588 23.9987C24.6503 24.0129 24.6384 24.0247 24.6242 24.0331C23.8268 24.4918 22.9975 24.8798 22.1268 25.2025C22.1134 25.2073 22.1013 25.215 22.0911 25.2249C22.0809 25.2348 22.073 25.2468 22.0678 25.2601C22.0626 25.2733 22.0603 25.2875 22.0611 25.3018C22.0618 25.316 22.0656 25.3298 22.0722 25.3425C22.5522 26.2585 23.1015 27.1305 23.7055 27.9585C23.718 27.9755 23.7355 27.9882 23.7556 27.9948C23.7756 28.0015 23.7972 28.0019 23.8175 27.9958C26.69 27.1313 29.3956 25.7875 31.8202 24.0211C31.832 24.0129 31.8419 24.0022 31.8493 23.9897C31.8566 23.9773 31.8612 23.9635 31.8628 23.9491C32.5295 17.1571 30.7455 11.2558 27.1308 6.02647C27.122 6.00947 27.1073 5.99623 27.0895 5.98914ZM10.6935 20.3705C9.11749 20.3705 7.81749 18.9451 7.81749 17.1971C7.81749 15.4478 9.09215 14.0238 10.6935 14.0238C12.3068 14.0238 13.5948 15.4598 13.5695 17.1971C13.5695 18.9465 12.2948 20.3705 10.6935 20.3705ZM21.3268 20.3705C19.7495 20.3705 18.4508 18.9451 18.4508 17.1971C18.4508 15.4478 19.7242 14.0238 21.3268 14.0238C22.9402 14.0238 24.2282 15.4598 24.2028 17.1971C24.2028 18.9465 22.9415 20.3705 21.3268 20.3705Z"/>
</mask>
<path d="M27.0895 5.98914L26.6784 6.90072L26.6987 6.9099L26.7195 6.91816L27.0895 5.98914ZM20.5762 4.00247L20.3876 4.98454L20.3985 4.98663L20.4094 4.98847L20.5762 4.00247ZM20.4708 4.05047L19.606 3.54838L19.6017 3.55585L20.4708 4.05047ZM19.6602 5.69047L19.5124 6.67949L20.2734 6.79319L20.5783 6.08672L19.6602 5.69047ZM12.3442 5.69047L11.4267 6.08839L11.7323 6.79298L12.4919 6.67949L12.3442 5.69047ZM11.5215 4.05047L10.6521 4.54463L10.654 4.54791L11.5215 4.05047ZM11.4162 3.9998L11.2595 3.01209L11.2493 3.01382L11.4162 3.9998ZM4.90282 5.9878L5.28961 6.90997L5.30197 6.90478L5.3142 6.89927L4.90282 5.9878ZM4.86015 6.0238L5.687 6.58624L5.69574 6.57338L5.70408 6.56026L4.86015 6.0238ZM0.132153 23.9478L-0.863438 24.0425L-0.862061 24.0552L0.132153 23.9478ZM0.173486 24.0211L-0.433228 24.8161L-0.424239 24.8229L-0.415097 24.8296L0.173486 24.0211ZM8.16415 27.9945L8.45838 27.0387L8.45353 27.0373L8.16415 27.9945ZM8.27615 27.9598L9.05885 28.5822L9.06811 28.5706L9.07702 28.5586L8.27615 27.9598ZM9.91082 25.3425L9.02411 24.8801L9.0213 24.8856L9.91082 25.3425ZM9.85615 25.2038L9.50373 26.1396L9.51358 26.1434L9.52351 26.1469L9.85615 25.2038ZM7.36015 24.0331L6.86442 24.9016L6.86592 24.9025L7.36015 24.0331ZM7.34949 23.8665L6.7556 23.0618L6.74708 23.0683L7.34949 23.8665ZM7.84549 23.4838L7.2172 22.7058L7.21685 22.7061L7.84549 23.4838ZM7.94949 23.4705L7.53777 24.3818L7.53973 24.3827L7.94949 23.4705ZM24.0308 23.4705L24.4446 24.3808L24.4531 24.377L24.4615 24.373L24.0308 23.4705ZM24.1362 23.4825L24.7687 22.7079L24.7588 22.7L24.1362 23.4825ZM24.6322 23.8665L24.0413 24.6733L24.0415 24.6734L24.6322 23.8665ZM24.6242 24.0331L25.1228 24.9L25.1348 24.8929L24.6242 24.0331ZM22.1268 25.2025L22.4681 26.1425L22.4743 26.1401L22.1268 25.2025ZM22.0722 25.3425L21.1842 25.8025L21.1864 25.8066L22.0722 25.3425ZM23.7055 27.9585L22.8976 28.5478L22.9013 28.5528L23.7055 27.9585ZM23.8175 27.9958L24.1042 28.9538L24.1057 28.9534L23.8175 27.9958ZM31.8202 24.0211L31.2472 23.2016L31.2392 23.2072L31.2313 23.2129L31.8202 24.0211ZM31.8628 23.9491L32.8569 24.0582L32.858 24.0468L31.8628 23.9491ZM27.1308 6.02647L26.2441 6.48882L26.2729 6.54394L26.3082 6.59508L27.1308 6.02647ZM13.5695 17.1971L12.5696 17.1826L12.5695 17.1898V17.1971H13.5695ZM24.2028 17.1971L23.2029 17.1826L23.2028 17.1898V17.1971H24.2028ZM27.5006 5.07755C25.3849 4.12342 23.1163 3.4178 20.7429 3.01647L20.4094 4.98847C22.6094 5.36047 24.7141 6.01485 26.6784 6.90072L27.5006 5.07755ZM20.7647 3.0204C20.5406 2.97739 20.3088 3.00511 20.1012 3.09971L20.9305 4.91965C20.7607 4.99705 20.5709 5.01972 20.3876 4.98454L20.7647 3.0204ZM20.1012 3.09971C19.8936 3.1943 19.7205 3.3511 19.606 3.5484L21.3356 4.55254C21.2419 4.71396 21.1003 4.84225 20.9305 4.91965L20.1012 3.09971ZM19.6017 3.55585C19.3004 4.08536 18.9724 4.76043 18.742 5.29422L20.5783 6.08672C20.7853 5.60718 21.0813 4.99958 21.3399 4.54509L19.6017 3.55585ZM19.8079 4.70145C17.2847 4.32446 14.7196 4.32446 12.1964 4.70145L12.4919 6.67949C14.8192 6.33178 17.1851 6.33178 19.5124 6.67949L19.8079 4.70145ZM13.2616 5.29255C13.0032 4.69695 12.7119 4.11621 12.389 3.55303L10.654 4.54791C10.94 5.04665 11.198 5.56095 11.4267 6.08839L13.2616 5.29255ZM12.3909 3.55631C12.28 3.3613 12.1123 3.20474 11.9102 3.10752L11.0433 4.90985C10.8788 4.83073 10.7423 4.70332 10.6521 4.54462L12.3909 3.55631ZM11.9102 3.10752C11.7081 3.01029 11.4811 2.97701 11.2596 3.01214L11.5728 4.98746C11.3925 5.01605 11.2077 4.98897 11.0433 4.90985L11.9102 3.10752ZM11.2493 3.01382C8.87729 3.41515 6.60858 4.12079 4.49144 5.07634L5.3142 6.89927C7.27973 6.01215 9.38435 5.35778 11.583 4.98579L11.2493 3.01382ZM4.51603 5.06563C4.31031 5.15192 4.1359 5.29907 4.01622 5.48735L5.70408 6.56026C5.60484 6.71639 5.4602 6.83842 5.28961 6.90997L4.51603 5.06563ZM4.03331 5.46137C-0.255221 11.766 -1.44268 17.9506 -0.863356 24.0425L1.12766 23.8531C0.589649 18.1957 1.67686 12.4816 5.687 6.58624L4.03331 5.46137ZM-0.862061 24.0552C-0.845932 24.2045 -0.799596 24.3489 -0.725873 24.4797L1.01643 23.4977C1.07594 23.6033 1.11335 23.7199 1.12637 23.8404L-0.862061 24.0552ZM-0.725873 24.4797C-0.652158 24.6105 -0.552594 24.725 -0.433228 24.8161L0.7802 23.2262C0.876558 23.2998 0.956928 23.3921 1.01643 23.4977L-0.725873 24.4797ZM-0.415097 24.8296C2.09744 26.6588 4.89985 28.0523 7.87477 28.9517L8.45353 27.0373C5.69336 26.2028 3.09324 24.9099 0.762069 23.2127L-0.415097 24.8296ZM7.86993 28.9502C8.08217 29.0155 8.30914 29.0153 8.52119 28.9497L7.92982 27.0391C8.10191 26.9859 8.28611 26.9857 8.45838 27.0387L7.86993 28.9502ZM8.52119 28.9497C8.73329 28.8841 8.92066 28.756 9.05885 28.5822L7.49346 27.3374C7.60561 27.1964 7.75768 27.0924 7.92982 27.0391L8.52119 28.9497ZM9.07702 28.5586C9.72755 27.6886 10.304 26.7657 10.8003 25.7994L9.0213 24.8856C8.57603 25.7524 8.05888 26.5805 7.47528 27.361L9.07702 28.5586ZM10.7975 25.8048C10.8703 25.6653 10.9122 25.5117 10.9205 25.3546L8.92324 25.2495C8.93003 25.1206 8.96442 24.9946 9.02412 24.8801L10.7975 25.8048ZM10.9205 25.3546C10.9288 25.1974 10.9032 25.0403 10.8454 24.8939L8.98481 25.6274C8.93746 25.5073 8.91646 25.3784 8.92324 25.2495L10.9205 25.3546ZM10.8454 24.8939C10.7877 24.7475 10.6992 24.6152 10.5859 24.506L9.1977 25.9457C9.10474 25.8561 9.03215 25.7475 8.98481 25.6274L10.8454 24.8939ZM10.5859 24.506C10.4726 24.3967 10.3372 24.3131 10.1888 24.2607L9.52351 26.1469C9.40176 26.1039 9.29065 26.0353 9.1977 25.9457L10.5859 24.506ZM10.2086 24.268C9.39618 23.962 8.60904 23.5928 7.85438 23.1638L6.86592 24.9025C7.71149 25.3832 8.59347 25.7969 9.50373 26.1396L10.2086 24.268ZM7.85589 23.1647C7.98529 23.2385 8.09432 23.3434 8.1732 23.4697L6.47659 24.5287C6.573 24.6832 6.70626 24.8113 6.86442 24.9016L7.85589 23.1647ZM8.1732 23.4697C8.25208 23.5961 8.29837 23.7401 8.30789 23.8888L6.31197 24.0165C6.3236 24.1983 6.38018 24.3743 6.47659 24.5287L8.1732 23.4697ZM8.30789 23.8888C8.31741 24.0375 8.28985 24.1862 8.22773 24.3216L6.40995 23.4875C6.33401 23.653 6.30034 23.8348 6.31197 24.0165L8.30789 23.8888ZM8.22773 24.3216C8.1656 24.457 8.07084 24.5749 7.95189 24.6647L6.74708 23.0683C6.60171 23.178 6.48588 23.3221 6.40995 23.4875L8.22773 24.3216ZM7.94334 24.671C8.12207 24.5391 8.30175 24.4008 8.47412 24.2615L7.21685 22.7061C7.06922 22.8254 6.9129 22.9458 6.75563 23.0619L7.94334 24.671ZM8.47377 24.2618C8.34416 24.3665 8.18803 24.4331 8.02276 24.4543L7.76843 22.4705C7.56645 22.4964 7.37562 22.5779 7.2172 22.7058L8.47377 24.2618ZM8.02276 24.4543C7.85751 24.4755 7.68961 24.4504 7.53777 24.3818L8.3612 22.5592C8.17562 22.4753 7.97041 22.4446 7.76843 22.4705L8.02276 24.4543ZM7.53973 24.3827C13.0348 26.851 19.0055 26.853 24.4446 24.3808L23.617 22.5601C18.7068 24.7919 13.3362 24.7939 8.35924 22.5583L7.53973 24.3827ZM24.4615 24.373C24.3092 24.4456 24.1396 24.474 23.972 24.4549L24.1984 22.4678C23.9935 22.4445 23.7862 22.4792 23.6001 22.568L24.4615 24.373ZM23.972 24.4549C23.8044 24.4358 23.6455 24.37 23.5135 24.265L24.7588 22.7C24.5974 22.5716 24.4032 22.4911 24.1984 22.4678L23.972 24.4549ZM23.5036 24.257C23.6766 24.3982 23.8571 24.5384 24.0413 24.6733L25.223 23.0597C25.0685 22.9466 24.9157 22.828 24.7687 22.7079L23.5036 24.257ZM24.0415 24.6734C23.9214 24.5855 23.825 24.4692 23.7609 24.3349L25.5657 23.4732C25.4874 23.3091 25.3696 23.167 25.2228 23.0596L24.0415 24.6734ZM23.7609 24.3349C23.6968 24.2007 23.667 24.0526 23.6741 23.904L25.6718 23.9999C25.6805 23.8183 25.6441 23.6373 25.5657 23.4732L23.7609 24.3349ZM23.6741 23.904C23.6813 23.7554 23.7251 23.6109 23.8018 23.4834L25.5158 24.514C25.6095 24.3582 25.6631 24.1815 25.6718 23.9999L23.6741 23.904ZM23.8018 23.4834C23.8784 23.3559 23.9855 23.2494 24.1135 23.1734L25.1348 24.8929C25.2912 24.8 25.4221 24.6698 25.5158 24.514L23.8018 23.4834ZM24.1255 23.1663C23.3772 23.5968 22.5985 23.9612 21.7793 24.2648L22.4743 26.1401C23.3965 25.7984 24.2764 25.3868 25.1228 24.8999L24.1255 23.1663ZM21.7856 24.2625C21.6385 24.3159 21.5045 24.4 21.3925 24.5094L22.7896 25.9405C22.698 26.0299 22.5884 26.0988 22.4681 26.1424L21.7856 24.2625ZM21.3925 24.5094C21.2805 24.6187 21.1932 24.7506 21.1363 24.8964L22.9993 25.6238C22.9527 25.7431 22.8813 25.851 22.7896 25.9405L21.3925 24.5094ZM21.1363 24.8964C21.0794 25.0422 21.0542 25.1984 21.0625 25.3546L23.0597 25.2489C23.0665 25.3767 23.0459 25.5045 22.9993 25.6238L21.1363 24.8964ZM21.0625 25.3546C21.0708 25.5109 21.1123 25.6636 21.1842 25.8025L22.9601 24.8824C23.0189 24.9961 23.0529 25.121 23.0597 25.2489L21.0625 25.3546ZM21.1864 25.8066C21.6909 26.7693 22.2668 27.683 22.8976 28.5478L24.5134 27.3691C23.9362 26.5779 23.4134 25.7476 22.9579 24.8783L21.1864 25.8066ZM22.9013 28.5528C23.0362 28.7354 23.2241 28.8718 23.4394 28.9435L24.0718 27.0462C24.247 27.1045 24.3999 27.2156 24.5097 27.3641L22.9013 28.5528ZM23.4394 28.9435C23.6546 29.0153 23.8868 29.0189 24.1042 28.9538L23.5308 27.0378C23.7077 26.9848 23.8966 26.9878 24.0718 27.0462L23.4394 28.9435ZM24.1057 28.9534C27.0861 28.0564 29.8934 26.6621 32.409 24.8294L31.2313 23.2129C28.8979 24.9129 26.2939 26.2062 23.5293 27.0382L24.1057 28.9534ZM32.3931 24.8407C32.5217 24.7508 32.6296 24.6345 32.7096 24.4995L30.989 23.4799C31.0542 23.3698 31.1422 23.2749 31.2472 23.2016L32.3931 24.8407ZM32.7096 24.4995C32.7896 24.3646 32.8398 24.2141 32.8569 24.0582L30.8688 23.8401C30.8827 23.7129 30.9237 23.5901 30.989 23.4799L32.7096 24.4995ZM32.858 24.0468C33.5497 17.0006 31.6916 10.8658 27.9534 5.45786L26.3082 6.59508C29.7994 11.6458 31.5093 17.3137 30.8676 23.8514L32.858 24.0468ZM28.0175 5.56412C27.8979 5.33469 27.6999 5.15585 27.4595 5.06012L26.7195 6.91816C26.5147 6.8366 26.346 6.68426 26.2441 6.48882L28.0175 5.56412ZM10.6935 19.3705C9.75831 19.3705 8.81749 18.4858 8.81749 17.1971H6.81749C6.81749 19.4045 8.47666 21.3705 10.6935 21.3705V19.3705ZM8.81749 17.1971C8.81749 15.9015 9.73814 15.0238 10.6935 15.0238V13.0238C8.44617 13.0238 6.81749 14.9941 6.81749 17.1971H8.81749ZM10.6935 15.0238C11.6681 15.0238 12.588 15.9189 12.5696 17.1826L14.5694 17.2117C14.6016 15.0007 12.9455 13.0238 10.6935 13.0238V15.0238ZM12.5695 17.1971C12.5695 18.4928 11.6488 19.3705 10.6935 19.3705V21.3705C12.9408 21.3705 14.5695 19.4001 14.5695 17.1971H12.5695ZM21.3268 19.3705C20.3906 19.3705 19.4508 18.4861 19.4508 17.1971H17.4508C17.4508 19.4042 19.1084 21.3705 21.3268 21.3705V19.3705ZM19.4508 17.1971C19.4508 15.9012 20.3704 15.0238 21.3268 15.0238V13.0238C19.0779 13.0238 17.4508 14.9944 17.4508 17.1971H19.4508ZM21.3268 15.0238C22.3015 15.0238 23.2214 15.9189 23.2029 17.1826L25.2027 17.2117C25.235 15.0007 23.5788 13.0238 21.3268 13.0238V15.0238ZM23.2028 17.1971C23.2028 18.496 22.2926 19.3705 21.3268 19.3705V21.3705C23.5903 21.3705 25.2028 19.397 25.2028 17.1971H23.2028Z" fill="#6039CF" mask="url(#path-1-inside-1_356_3452)"/>
</svg>
