<svg width="100" height="231" viewBox="0 0 100 231" fill="none" xmlns="http://www.w3.org/2000/svg">
<path d="M-52.1037 1.44451C-52.4556 2.3759 -52.0157 3.30732 -51.2239 3.67987L56.8985 50.2493C57.7783 50.6219 58.746 50.1562 59.01 49.3179C59.3619 48.3865 58.922 47.362 58.1302 47.0826L-49.9922 0.513126C-50.784 0.14057 -51.7518 0.513126 -52.1037 1.44451Z" fill="url(#paint0_linear_234_3156)"/>
<path d="M-87.4698 93.8383C-87.8217 94.7697 -87.3819 95.701 -86.5901 96.0736L54.8753 156.241C55.7551 156.614 56.6347 156.148 56.9866 155.31C57.3385 154.379 56.8987 153.354 56.1069 153.075L-85.3584 92.9069C-86.1502 92.5344 -87.1179 93.0001 -87.4698 93.8383Z" fill="url(#paint1_linear_234_3156)"/>
<path d="M-21.8396 25.5676C-22.5434 27.3372 -21.7516 29.2931 -20.0801 29.9451L86.5468 75.8626C88.2184 76.5146 90.0658 75.7695 90.6816 73.9998C91.3854 72.2302 90.5937 70.2743 88.9221 69.6223L-17.7047 23.7048C-19.2882 23.0528 -21.1358 23.8911 -21.8396 25.5676Z" fill="url(#paint2_linear_234_3156)"/>
<path d="M-15.4171 46.8963C-16.3849 49.5042 -15.2412 52.4846 -12.7779 53.5091L63.0574 86.294C65.5207 87.3185 68.336 86.1077 69.3917 83.4998C70.3594 80.8919 69.2157 77.9115 66.7524 76.887L-9.08292 44.1021C-11.5463 43.0776 -14.3614 44.2884 -15.4171 46.8963Z" fill="url(#paint3_linear_234_3156)"/>
<path d="M-34.6845 51.5533C-34.9484 52.1121 -34.6845 52.764 -34.0687 53.0435L68.4233 97.1913C68.9511 97.4707 69.5671 97.1912 69.831 96.5393C70.0949 95.9804 69.8309 95.3285 69.2151 95.0491L-33.2769 50.9012C-33.8927 50.7149 -34.5085 50.9944 -34.6845 51.5533Z" fill="url(#paint4_linear_234_3156)"/>
<path d="M-40.1387 63.1025C-40.5786 64.2202 -40.0508 65.5241 -38.9951 65.9898L56.2829 107.064C57.3386 107.53 58.5702 106.971 59.0101 105.853C59.45 104.735 58.9221 103.432 57.8664 102.966L-37.4115 61.8916C-38.4672 61.4259 -39.6989 61.8917 -40.1387 63.1025Z" fill="url(#paint5_linear_234_3156)"/>
<path d="M-40.6668 85.1765C-41.1946 86.5736 -40.5787 88.157 -39.2591 88.7158L86.5465 142.084C87.8661 142.643 89.3617 141.991 89.8895 140.594C90.4174 139.197 89.8016 137.614 88.4819 137.055L-37.3236 83.6863C-38.6433 83.1274 -40.1389 83.7794 -40.6668 85.1765Z" fill="url(#paint6_linear_234_3156)"/>
<path d="M-37.6753 101.103C-38.907 104.27 -37.4114 107.809 -34.5082 109.02L90.1538 161.923C93.145 163.227 96.4881 161.643 97.6317 158.57C98.8634 155.403 97.3678 151.864 94.4646 150.653L-30.1973 97.7501C-33.1005 96.4462 -36.4436 97.9364 -37.6753 101.103Z" fill="url(#paint7_linear_234_3156)"/>
<path d="M-43.1302 124.388C-43.4821 125.319 -43.0422 126.251 -42.2504 126.623L65.872 173.193C66.7518 173.565 67.7194 173.1 67.9834 172.261C68.3353 171.33 67.8954 170.399 67.1036 170.026L-41.1068 123.456C-41.8106 123.084 -42.7783 123.55 -43.1302 124.388Z" fill="url(#paint8_linear_234_3156)"/>
<path d="M-12.7782 148.604C-13.394 150.28 -12.6902 152.33 -11.0187 152.982L95.6081 198.899C97.2797 199.551 99.1272 198.806 99.7431 197.036C100.447 195.267 99.6551 193.311 97.9836 192.659L-8.64335 146.741C-10.3149 145.996 -12.1623 146.834 -12.7782 148.604Z" fill="url(#paint9_linear_234_3156)"/>
<path d="M-6.35624 169.933C-7.32397 172.541 -6.18028 175.521 -3.71696 176.546L72.1184 209.331C74.5817 210.355 77.3969 209.144 78.3646 206.536C79.3324 203.929 78.1887 200.948 75.7254 199.924L-0.109858 167.139C-2.57318 166.021 -5.3885 167.325 -6.35624 169.933Z" fill="url(#paint10_linear_234_3156)"/>
<path d="M-25.7104 174.497C-25.8864 175.055 -25.7104 175.707 -25.0945 175.987L77.3974 220.135C77.9253 220.414 78.5411 220.135 78.805 219.483C79.069 218.924 78.8051 218.272 78.1892 217.992L-24.3027 173.845C-24.8306 173.658 -25.4465 173.938 -25.7104 174.497Z" fill="url(#paint11_linear_234_3156)"/>
<path d="M-31.1657 186.046C-31.6056 187.163 -31.0777 188.467 -30.022 188.933L65.2559 230.007C66.3116 230.473 67.5432 229.914 67.9831 228.797C68.423 227.679 67.8952 226.375 66.8395 225.909L-28.4385 184.835C-29.4942 184.369 -30.7258 184.928 -31.1657 186.046Z" fill="url(#paint12_linear_234_3156)"/>
<path d="M-65.3001 183.717C-65.8279 185.021 -65.2121 186.418 -63.9804 186.977L3.84909 216.13C5.08076 216.689 6.4004 216.037 6.92825 214.733C7.45611 213.429 6.84028 212.032 5.60861 211.473L-62.2209 182.32C-63.4526 181.855 -64.8602 182.507 -65.3001 183.717Z" fill="url(#paint13_linear_234_3156)"/>
<defs>
<linearGradient id="paint0_linear_234_3156" x1="59.1494" y1="49.2956" x2="-53.8479" y2="6.02399" gradientUnits="userSpaceOnUse">
<stop stop-color="#49C8F5"/>
<stop offset="1" stop-color="#49C8F5"/>
</linearGradient>
<linearGradient id="paint1_linear_234_3156" x1="56.948" y1="155.572" x2="-89.6243" y2="99.4433" gradientUnits="userSpaceOnUse">
<stop stop-color="#49C8F5"/>
<stop offset="1" stop-color="#49C8F5"/>
</linearGradient>
<linearGradient id="paint2_linear_234_3156" x1="90.7418" y1="74.0207" x2="-23.5887" y2="30.2386" gradientUnits="userSpaceOnUse">
<stop stop-color="#9A69AC"/>
<stop offset="1" stop-color="#9A69AC"/>
</linearGradient>
<linearGradient id="paint3_linear_234_3156" x1="69.4518" y1="83.4431" x2="-16.7356" y2="50.4382" gradientUnits="userSpaceOnUse">
<stop stop-color="#D670AC"/>
<stop offset="1" stop-color="#D670AC"/>
</linearGradient>
<linearGradient id="paint4_linear_234_3156" x1="69.7786" y1="96.4956" x2="-36.3421" y2="55.8574" gradientUnits="userSpaceOnUse">
<stop stop-color="#49C8F5"/>
<stop offset="1" stop-color="#49C8F5"/>
</linearGradient>
<linearGradient id="paint5_linear_234_3156" x1="59.1165" y1="105.77" x2="-41.6955" y2="67.1647" gradientUnits="userSpaceOnUse">
<stop stop-color="#9A69AC"/>
<stop offset="1" stop-color="#9A69AC"/>
</linearGradient>
<linearGradient id="paint6_linear_234_3156" x1="89.7613" y1="140.879" x2="-42.6255" y2="90.1822" gradientUnits="userSpaceOnUse">
<stop stop-color="#49C8F5"/>
<stop offset="1" stop-color="#49C8F5"/>
</linearGradient>
<linearGradient id="paint7_linear_234_3156" x1="97.6116" y1="158.876" x2="-39.6582" y2="106.309" gradientUnits="userSpaceOnUse">
<stop stop-color="#9A69AC"/>
<stop offset="1" stop-color="#9A69AC"/>
</linearGradient>
<linearGradient id="paint8_linear_234_3156" x1="68.1475" y1="172.272" x2="-44.8492" y2="129.001" gradientUnits="userSpaceOnUse">
<stop stop-color="#49C8F5"/>
<stop offset="1" stop-color="#49C8F5"/>
</linearGradient>
<linearGradient id="paint9_linear_234_3156" x1="99.7404" y1="196.998" x2="-14.5897" y2="153.216" gradientUnits="userSpaceOnUse">
<stop stop-color="#9A69AC"/>
<stop offset="1" stop-color="#9A69AC"/>
</linearGradient>
<linearGradient id="paint10_linear_234_3156" x1="78.4497" y1="206.42" x2="-7.73847" y2="173.415" gradientUnits="userSpaceOnUse">
<stop stop-color="#D670AC"/>
<stop offset="1" stop-color="#D670AC"/>
</linearGradient>
<linearGradient id="paint11_linear_234_3156" x1="78.7866" y1="219.475" x2="-27.3421" y2="178.833" gradientUnits="userSpaceOnUse">
<stop stop-color="#49C8F5"/>
<stop offset="1" stop-color="#49C8F5"/>
</linearGradient>
<linearGradient id="paint12_linear_234_3156" x1="68.1145" y1="228.749" x2="-32.6907" y2="190.147" gradientUnits="userSpaceOnUse">
<stop stop-color="#9A69AC"/>
<stop offset="1" stop-color="#9A69AC"/>
</linearGradient>
<linearGradient id="paint13_linear_234_3156" x1="6.91475" y1="214.762" x2="-66.4262" y2="186.677" gradientUnits="userSpaceOnUse">
<stop stop-color="#D670AC"/>
<stop offset="1" stop-color="#D670AC"/>
</linearGradient>
</defs>
</svg>
