<svg width="103" height="222" viewBox="0 0 103 222" fill="none" xmlns="http://www.w3.org/2000/svg">
<path d="M154.685 1.65402C155.043 2.54872 154.596 3.44343 153.791 3.80131L43.833 48.5359C42.9383 48.8938 41.9541 48.4464 41.6857 47.6412C41.3278 46.7465 41.7752 45.7623 42.5804 45.4939L152.538 0.759332C153.343 0.401455 154.327 0.759332 154.685 1.65402Z" fill="url(#paint0_linear_234_3199)"/>
<path d="M190.652 90.4076C191.01 91.3023 190.562 92.1969 189.757 92.5548L45.8907 150.352C44.996 150.71 44.1014 150.262 43.7435 149.457C43.3856 148.563 43.833 147.578 44.6382 147.31L188.505 89.5129C189.31 89.155 190.294 89.6024 190.652 90.4076Z" fill="url(#paint1_linear_234_3199)"/>
<path d="M123.908 24.8267C124.624 26.5266 123.818 28.4054 122.118 29.0317L13.6818 73.14C11.9818 73.7663 10.103 73.0506 9.47675 71.3507C8.76099 69.6507 9.56622 67.7719 11.2661 67.1456L119.703 23.0373C121.313 22.411 123.192 23.2162 123.908 24.8267Z" fill="url(#paint2_linear_234_3199)"/>
<path d="M117.377 45.3151C118.361 47.8202 117.198 50.6832 114.693 51.6674L37.5702 83.1605C35.065 84.1447 32.202 82.9816 31.1283 80.4764C30.1442 77.9713 31.3073 75.1083 33.8124 74.1241L110.935 42.631C113.44 41.6469 116.303 42.81 117.377 45.3151Z" fill="url(#paint3_linear_234_3199)"/>
<path d="M136.971 49.7886C137.239 50.3254 136.971 50.9517 136.344 51.2201L32.1127 93.6285C31.5759 93.8969 30.9495 93.6284 30.6811 93.0022C30.4127 92.4653 30.6812 91.8391 31.3075 91.5707L135.539 49.1623C136.165 48.9833 136.792 49.2518 136.971 49.7886Z" fill="url(#paint4_linear_234_3199)"/>
<path d="M142.517 60.8827C142.965 61.9564 142.428 63.2089 141.354 63.6563L44.4591 103.112C43.3855 103.56 42.1329 103.023 41.6856 101.949C41.2382 100.875 41.7751 99.6228 42.8487 99.1755L139.744 59.7196C140.817 59.2723 142.07 59.7196 142.517 60.8827Z" fill="url(#paint5_linear_234_3199)"/>
<path d="M143.054 82.087C143.591 83.429 142.965 84.95 141.623 85.4868L13.6818 136.753C12.3398 137.289 10.8189 136.663 10.2821 135.321C9.74525 133.979 10.3715 132.458 11.7135 131.921L139.655 80.6555C140.997 80.1187 142.518 80.7449 143.054 82.087Z" fill="url(#paint6_linear_234_3199)"/>
<path d="M140.012 97.3861C141.265 100.428 139.744 103.828 136.791 104.991L10.0136 155.81C6.97162 157.062 3.57178 155.541 2.40868 152.589C1.15611 149.547 2.67706 146.147 5.62955 144.984L132.407 94.1653C135.36 92.9127 138.76 94.3442 140.012 97.3861Z" fill="url(#paint7_linear_234_3199)"/>
<path d="M145.56 119.753C145.917 120.648 145.47 121.543 144.665 121.901L34.7072 166.635C33.8125 166.993 32.8285 166.546 32.5601 165.741C32.2022 164.846 32.6495 163.951 33.4548 163.593L143.502 118.859C144.218 118.501 145.202 118.948 145.56 119.753Z" fill="url(#paint8_linear_234_3199)"/>
<path d="M114.693 143.015C115.319 144.626 114.603 146.594 112.903 147.221L4.46664 191.329C2.76672 191.955 0.88781 191.239 0.26152 189.539C-0.454231 187.839 0.35099 185.961 2.05091 185.334L110.488 141.226C112.188 140.51 114.066 141.316 114.693 143.015Z" fill="url(#paint9_linear_234_3199)"/>
<path d="M108.162 163.504C109.146 166.009 107.983 168.872 105.477 169.856L28.355 201.349C25.8498 202.334 22.9868 201.171 22.0027 198.665C21.0185 196.16 22.1816 193.297 24.6868 192.313L101.809 160.82C104.314 159.746 107.177 160.999 108.162 163.504Z" fill="url(#paint10_linear_234_3199)"/>
<path d="M127.845 167.888C128.024 168.425 127.845 169.051 127.219 169.319L22.9869 211.728C22.4501 211.996 21.8238 211.728 21.5554 211.102C21.287 210.565 21.5554 209.938 22.1817 209.67L126.413 167.262C126.95 167.083 127.576 167.351 127.845 167.888Z" fill="url(#paint11_linear_234_3199)"/>
<path d="M133.392 178.982C133.839 180.056 133.302 181.308 132.229 181.756L35.3337 221.212C34.2601 221.659 33.0076 221.122 32.5602 220.048C32.1129 218.975 32.6496 217.722 33.7233 217.275L130.618 177.819C131.692 177.372 132.945 177.908 133.392 178.982Z" fill="url(#paint12_linear_234_3199)"/>
<path d="M168.106 176.745C168.643 177.998 168.016 179.34 166.764 179.877L97.7831 207.881C96.5305 208.417 95.1885 207.791 94.6516 206.539C94.1148 205.286 94.7411 203.944 95.9937 203.407L164.975 175.403C166.227 174.956 167.659 175.582 168.106 176.745Z" fill="url(#paint13_linear_234_3199)"/>
<defs>
<linearGradient id="paint0_linear_234_3199" x1="41.5439" y1="47.6198" x2="154.711" y2="1.74003" gradientUnits="userSpaceOnUse">
<stop stop-color="#49C8F5"/>
<stop offset="1" stop-color="#49C8F5"/>
</linearGradient>
<linearGradient id="paint1_linear_234_3199" x1="43.7828" y1="149.709" x2="190.575" y2="90.1972" gradientUnits="userSpaceOnUse">
<stop stop-color="#49C8F5"/>
<stop offset="1" stop-color="#49C8F5"/>
</linearGradient>
<linearGradient id="paint2_linear_234_3199" x1="9.41557" y1="71.3707" x2="123.917" y2="24.9497" gradientUnits="userSpaceOnUse">
<stop stop-color="#9A69AC"/>
<stop offset="1" stop-color="#9A69AC"/>
</linearGradient>
<linearGradient id="paint3_linear_234_3199" x1="31.0672" y1="80.422" x2="117.384" y2="45.4277" gradientUnits="userSpaceOnUse">
<stop stop-color="#D670AC"/>
<stop offset="1" stop-color="#D670AC"/>
</linearGradient>
<linearGradient id="paint4_linear_234_3199" x1="30.7344" y1="92.9602" x2="137.014" y2="49.8726" gradientUnits="userSpaceOnUse">
<stop stop-color="#49C8F5"/>
<stop offset="1" stop-color="#49C8F5"/>
</linearGradient>
<linearGradient id="paint5_linear_234_3199" x1="41.5773" y1="101.869" x2="142.54" y2="60.9369" gradientUnits="userSpaceOnUse">
<stop stop-color="#9A69AC"/>
<stop offset="1" stop-color="#9A69AC"/>
</linearGradient>
<linearGradient id="paint6_linear_234_3199" x1="10.4125" y1="135.595" x2="142.998" y2="81.8423" gradientUnits="userSpaceOnUse">
<stop stop-color="#49C8F5"/>
<stop offset="1" stop-color="#49C8F5"/>
</linearGradient>
<linearGradient id="paint7_linear_234_3199" x1="2.4292" y1="152.883" x2="139.905" y2="97.1479" gradientUnits="userSpaceOnUse">
<stop stop-color="#9A69AC"/>
<stop offset="1" stop-color="#9A69AC"/>
</linearGradient>
<linearGradient id="paint8_linear_234_3199" x1="32.3932" y1="165.751" x2="145.559" y2="119.872" gradientUnits="userSpaceOnUse">
<stop stop-color="#49C8F5"/>
<stop offset="1" stop-color="#49C8F5"/>
</linearGradient>
<linearGradient id="paint9_linear_234_3199" x1="0.264266" y1="189.502" x2="114.766" y2="143.081" gradientUnits="userSpaceOnUse">
<stop stop-color="#9A69AC"/>
<stop offset="1" stop-color="#9A69AC"/>
</linearGradient>
<linearGradient id="paint10_linear_234_3199" x1="21.9162" y1="198.553" x2="108.234" y2="163.559" gradientUnits="userSpaceOnUse">
<stop stop-color="#D670AC"/>
<stop offset="1" stop-color="#D670AC"/>
</linearGradient>
<linearGradient id="paint11_linear_234_3199" x1="21.5742" y1="211.094" x2="127.862" y2="168.003" gradientUnits="userSpaceOnUse">
<stop stop-color="#49C8F5"/>
<stop offset="1" stop-color="#49C8F5"/>
</linearGradient>
<linearGradient id="paint12_linear_234_3199" x1="32.4266" y1="220.003" x2="133.383" y2="179.074" gradientUnits="userSpaceOnUse">
<stop stop-color="#9A69AC"/>
<stop offset="1" stop-color="#9A69AC"/>
</linearGradient>
<linearGradient id="paint13_linear_234_3199" x1="94.6654" y1="206.567" x2="168.116" y2="176.789" gradientUnits="userSpaceOnUse">
<stop stop-color="#D670AC"/>
<stop offset="1" stop-color="#D670AC"/>
</linearGradient>
</defs>
</svg>
