<svg width="32" height="32" viewBox="0 0 32 32" fill="none" xmlns="http://www.w3.org/2000/svg">
<path d="M27.9131 10.8673L27.9133 10.8712C27.9975 12.3675 27.9959 13.8543 27.9942 15.3672C27.994 15.5774 27.9938 15.7881 27.9938 15.9994C27.9938 16.2361 27.9941 16.4721 27.9945 16.7074C27.9966 18.1947 27.9988 19.6558 27.9133 21.1266L27.9131 21.1314C27.8193 23.0688 27.3856 24.6973 26.0433 26.0396C24.7041 27.3788 23.0724 27.8155 21.1352 27.9093L21.1313 27.9095C19.6349 27.9937 18.1482 27.9921 16.6353 27.9904C16.4251 27.9902 16.2144 27.99 16.0031 27.99C15.7923 27.99 15.582 27.9902 15.3722 27.9904C13.8614 27.9921 12.3741 27.9937 10.8749 27.9095L10.8711 27.9093C8.93373 27.8155 7.30523 27.3818 5.96295 26.0396C4.6237 24.7003 4.18702 23.0686 4.09321 21.1314L4.09299 21.1275C4.0088 19.6311 4.01042 18.1418 4.01207 16.6304C4.0123 16.4205 4.01253 16.2102 4.01253 15.9994C4.01253 15.7885 4.0123 15.5782 4.01207 15.3683C4.01042 13.8575 4.0088 12.3703 4.09299 10.8712L4.093 10.8712L4.09319 10.8673C4.18703 8.92994 4.62068 7.30144 5.96295 5.95917C7.3022 4.61992 8.93395 4.18324 10.8711 4.08941L10.8711 4.08942L10.875 4.0892C12.3713 4.00502 13.8581 4.00664 15.371 4.00828C15.5812 4.00851 15.7919 4.00874 16.0031 4.00874C16.214 4.00874 16.4243 4.00851 16.6342 4.00828C18.145 4.00664 19.6322 4.00501 21.1314 4.08921V4.08922L21.1352 4.08941C23.0726 4.18325 24.7011 4.6169 26.0433 5.95917C27.3826 7.29842 27.8193 8.93016 27.9131 10.8673ZM12.3344 15.9994C12.3344 13.9818 13.9824 12.3337 16 12.3337C18.0176 12.3337 19.6657 13.9818 19.6657 15.9994C19.6657 18.017 18.0176 19.665 16 19.665C13.9824 19.665 12.3344 18.017 12.3344 15.9994ZM26.3969 26.3931C27.8625 24.9275 28.3157 23.1556 28.4125 21.1556L3.59378 10.8431C3.50872 12.3576 3.51039 13.8601 3.51206 15.3695C3.51229 15.5793 3.51253 15.7892 3.51253 15.9994C3.51253 16.2095 3.51229 16.4194 3.51206 16.6293C3.51039 18.1393 3.50872 19.6438 3.59378 21.1556C3.69065 23.1556 4.1469 24.9306 5.6094 26.3931C7.07503 27.8587 8.8469 28.3119 10.8469 28.4087C12.3614 28.4938 13.8639 28.4921 15.3734 28.4905C15.5831 28.4902 15.793 28.49 16.0031 28.49C16.2137 28.49 16.424 28.4902 16.6341 28.4905C18.1456 28.4921 19.6477 28.4938 21.1594 28.4087C23.1594 28.3119 24.9344 27.8556 26.3969 26.3931ZM9.09065 15.9994C9.09065 19.8224 12.177 22.9087 16 22.9087C19.823 22.9087 22.9094 19.8224 22.9094 15.9994C22.9094 12.1763 19.823 9.08999 16 9.08999C12.177 9.08999 9.09065 12.1763 9.09065 15.9994ZM20.675 9.32749C20.675 10.4317 21.5675 11.3242 22.6717 11.3244L24.1688 9.32749H24.6688C24.6688 9.32728 24.6688 9.32707 24.6688 9.32687C24.6684 8.22289 23.776 7.33062 22.6719 7.33062C21.5676 7.33062 20.675 8.22322 20.675 9.32749Z" stroke="#6039CF"/>
</svg>
