<svg width="22" height="23" viewBox="0 0 22 23" fill="none" xmlns="http://www.w3.org/2000/svg">
<path d="M12.7276 2.94418L14.4874 6.49287C14.7274 6.98687 15.3673 7.4607 15.9073 7.55143L19.0969 8.08576C21.1367 8.42853 21.6167 9.92059 20.1468 11.3925L17.6671 13.8927C17.2471 14.3161 17.0172 15.1327 17.1471 15.7175L17.8571 18.8125C18.417 21.2623 17.1272 22.21 14.9774 20.9296L11.9877 19.1452C11.4478 18.8226 10.5579 18.8226 10.0079 19.1452L7.01827 20.9296C4.8785 22.21 3.57865 21.2522 4.13859 18.8125L4.84851 15.7175C4.97849 15.1327 4.74852 14.3161 4.32856 13.8927L1.84884 11.3925C0.389 9.92059 0.858948 8.42853 2.89872 8.08576L6.08837 7.55143C6.61831 7.4607 7.25824 6.98687 7.49821 6.49287L9.25802 2.94418C10.2179 1.01861 11.7777 1.01861 12.7276 2.94418Z" stroke="#FFC005" stroke-width="1.5" stroke-linecap="round" stroke-linejoin="round"/>
</svg>
