<svg width="97" height="16" viewBox="0 0 97 16" fill="none" xmlns="http://www.w3.org/2000/svg">
<path d="M9.52424 2.34001L10.6976 4.68668C10.8576 5.01334 11.2842 5.32668 11.6442 5.38668L13.7709 5.74001C15.1309 5.96668 15.4509 6.95334 14.4709 7.92668L12.8176 9.58001C12.5376 9.86001 12.3842 10.4 12.4709 10.7867L12.9442 12.8333C13.3176 14.4533 12.4576 15.08 11.0242 14.2333L9.03091 13.0533C8.67091 12.84 8.07758 12.84 7.71091 13.0533L5.71758 14.2333C4.29091 15.08 3.42424 14.4467 3.79758 12.8333L4.27091 10.7867C4.35758 10.4 4.20424 9.86001 3.92424 9.58001L2.27091 7.92668C1.29758 6.95334 1.61091 5.96668 2.97091 5.74001L5.09758 5.38668C5.45091 5.32668 5.87758 5.01334 6.03758 4.68668L7.21091 2.34001C7.85091 1.06668 8.89091 1.06668 9.52424 2.34001Z" fill="#FFC005" stroke="#FFC005" stroke-width="1.5" stroke-linecap="round" stroke-linejoin="round"/>
<path d="M29.5242 2.34001L30.6976 4.68668C30.8576 5.01334 31.2842 5.32668 31.6442 5.38668L33.7709 5.74001C35.1309 5.96668 35.4509 6.95334 34.4709 7.92668L32.8176 9.58001C32.5376 9.86001 32.3842 10.4 32.4709 10.7867L32.9442 12.8333C33.3176 14.4533 32.4576 15.08 31.0242 14.2333L29.0309 13.0533C28.6709 12.84 28.0776 12.84 27.7109 13.0533L25.7176 14.2333C24.2909 15.08 23.4242 14.4467 23.7976 12.8333L24.2709 10.7867C24.3576 10.4 24.2042 9.86001 23.9242 9.58001L22.2709 7.92668C21.2976 6.95334 21.6109 5.96668 22.9709 5.74001L25.0976 5.38668C25.4509 5.32668 25.8776 5.01334 26.0376 4.68668L27.2109 2.34001C27.8509 1.06668 28.8909 1.06668 29.5242 2.34001Z" fill="#FFC005" stroke="#FFC005" stroke-width="1.5" stroke-linecap="round" stroke-linejoin="round"/>
<path d="M49.5242 2.34001L50.6976 4.68668C50.8576 5.01334 51.2842 5.32668 51.6442 5.38668L53.7709 5.74001C55.1309 5.96668 55.4509 6.95334 54.4709 7.92668L52.8176 9.58001C52.5376 9.86001 52.3842 10.4 52.4709 10.7867L52.9442 12.8333C53.3176 14.4533 52.4576 15.08 51.0242 14.2333L49.0309 13.0533C48.6709 12.84 48.0776 12.84 47.7109 13.0533L45.7176 14.2333C44.2909 15.08 43.4242 14.4467 43.7976 12.8333L44.2709 10.7867C44.3576 10.4 44.2042 9.86001 43.9242 9.58001L42.2709 7.92668C41.2976 6.95334 41.6109 5.96668 42.9709 5.74001L45.0976 5.38668C45.4509 5.32668 45.8776 5.01334 46.0376 4.68668L47.2109 2.34001C47.8509 1.06668 48.8909 1.06668 49.5242 2.34001Z" fill="#FFC005" stroke="#FFC005" stroke-width="1.5" stroke-linecap="round" stroke-linejoin="round"/>
<path d="M69.5242 2.34001L70.6976 4.68668C70.8576 5.01334 71.2842 5.32668 71.6442 5.38668L73.7709 5.74001C75.1309 5.96668 75.4509 6.95334 74.4709 7.92668L72.8176 9.58001C72.5376 9.86001 72.3842 10.4 72.4709 10.7867L72.9442 12.8333C73.3176 14.4533 72.4576 15.08 71.0242 14.2333L69.0309 13.0533C68.6709 12.84 68.0776 12.84 67.7109 13.0533L65.7176 14.2333C64.2909 15.08 63.4242 14.4467 63.7976 12.8333L64.2709 10.7867C64.3576 10.4 64.2042 9.86001 63.9242 9.58001L62.2709 7.92668C61.2976 6.95334 61.6109 5.96668 62.9709 5.74001L65.0976 5.38668C65.4509 5.32668 65.8776 5.01334 66.0376 4.68668L67.2109 2.34001C67.8509 1.06668 68.8909 1.06668 69.5242 2.34001Z" fill="#FFC005" stroke="#FFC005" stroke-width="1.5" stroke-linecap="round" stroke-linejoin="round"/>
<path d="M89.5242 2.34001L90.6976 4.68668C90.8576 5.01334 91.2842 5.32668 91.6442 5.38668L93.7709 5.74001C95.1309 5.96668 95.4509 6.95334 94.4709 7.92668L92.8176 9.58001C92.5376 9.86001 92.3842 10.4 92.4709 10.7867L92.9442 12.8333C93.3176 14.4533 92.4576 15.08 91.0242 14.2333L89.0309 13.0533C88.6709 12.84 88.0776 12.84 87.7109 13.0533L85.7176 14.2333C84.2909 15.08 83.4242 14.4467 83.7976 12.8333L84.2709 10.7867C84.3576 10.4 84.2042 9.86001 83.9242 9.58001L82.2709 7.92668C81.2976 6.95334 81.6109 5.96668 82.9709 5.74001L85.0976 5.38668C85.4509 5.32668 85.8776 5.01334 86.0376 4.68668L87.2109 2.34001C87.8509 1.06668 88.8909 1.06668 89.5242 2.34001Z" fill="#FFC005" stroke="#FFC005" stroke-width="1.5" stroke-linecap="round" stroke-linejoin="round"/>
</svg>
