<svg width="22" height="23" viewBox="0 0 22 23" fill="none" xmlns="http://www.w3.org/2000/svg">
<path d="M12.8677 3.08285L14.6275 6.63155C14.8674 7.12554 15.5074 7.59937 16.0473 7.69011L19.2369 8.22443C21.2767 8.5672 21.7567 10.0593 20.2868 11.5312L17.8071 14.0314C17.3872 14.4548 17.1572 15.2714 17.2872 15.8561L17.9971 18.9512C18.557 21.401 17.2672 22.3486 15.1174 21.0683L12.1277 19.2839C11.5878 18.9613 10.6979 18.9613 10.148 19.2839L7.15828 21.0683C5.01852 22.3486 3.71866 21.3909 4.2786 18.9512L4.98852 15.8561C5.11851 15.2714 4.88853 14.4548 4.46858 14.0314L1.98885 11.5312C0.529015 10.0593 0.998963 8.5672 3.03874 8.22443L6.22838 7.69011C6.75833 7.59937 7.39826 7.12554 7.63823 6.63155L9.39804 3.08285C10.3579 1.15728 11.9178 1.15728 12.8677 3.08285Z" fill="#FFC005" stroke="#FFC005" stroke-width="1.5" stroke-linecap="round" stroke-linejoin="round"/>
</svg>
