<svg width="69" height="65" viewBox="0 0 69 65" fill="none" xmlns="http://www.w3.org/2000/svg">
<path d="M31.56 2.47874C32.2106 -0.72528 36.7894 -0.725289 37.44 2.47873L41.4909 22.4283C41.8006 23.9535 43.2253 24.9887 44.7716 24.8119L64.9966 22.4998C68.2448 22.1284 69.6598 26.4831 66.8136 28.092L49.0922 38.1093C47.7373 38.8752 47.1931 40.5501 47.8391 41.9661L56.2879 60.4867C57.6449 63.4612 53.9405 66.1525 51.5309 63.9429L36.5276 50.1844C35.3805 49.1325 33.6195 49.1325 32.4724 50.1844L17.4691 63.9428C15.0595 66.1525 11.3551 63.4612 12.7121 60.4867L21.1609 41.9661C21.8069 40.5501 21.2627 38.8752 19.9078 38.1093L2.1864 28.092C-0.659756 26.4831 0.755166 22.1284 4.00341 22.4998L24.2284 24.8119C25.7747 24.9887 27.1994 23.9536 27.5091 22.4283L31.56 2.47874Z" fill="#C486EC"/>
</svg>
