<svg width="32" height="32" viewBox="0 0 32 32" fill="none" xmlns="http://www.w3.org/2000/svg">
<path d="M27.7332 5.42228L27.7465 5.41716L27.7594 5.41131C28.1578 5.23106 28.456 5.31076 28.6195 5.46877C28.7897 5.63325 28.9582 6.02244 28.7775 6.74677L28.7754 6.75534L28.7735 6.76398L24.7482 25.7346L24.7478 25.7364C24.6211 26.3443 24.4049 26.5705 24.2386 26.6453C24.0725 26.7201 23.7738 26.7266 23.2827 26.4624L17.1784 21.9536L16.837 21.7014L16.5327 21.9973L13.5861 24.8627L13.5847 24.864L13.5738 24.8745C13.4378 25.0058 13.3434 25.0969 13.2513 25.1656L13.6094 19.8138L24.8333 9.68435C24.8338 9.68388 24.8343 9.68341 24.8348 9.68294C24.9875 9.54704 25.1733 9.33154 25.1841 9.04569C25.1902 8.88455 25.1375 8.72995 25.0342 8.60692C24.9376 8.4918 24.8169 8.42746 24.7137 8.39202C24.513 8.32314 24.2922 8.33204 24.0987 8.37214C23.8957 8.41422 23.6801 8.49911 23.4694 8.62728L23.4694 8.62722L23.4625 8.63156L9.61513 17.3684L3.76622 15.5438L3.76398 15.5431C3.47937 15.4558 3.31245 15.3545 3.22843 15.275C3.18861 15.2374 3.17446 15.2114 3.17 15.201C3.1668 15.1936 3.16704 15.1914 3.16726 15.1894L3.16731 15.189C3.16806 15.1815 3.18161 15.1023 3.33372 14.9678C3.48218 14.8366 3.72756 14.6855 4.09654 14.537L27.7332 5.42228Z" stroke="#6039CF"/>
</svg>
