<svg width="32" height="32" viewBox="0 0 32 32" fill="none" xmlns="http://www.w3.org/2000/svg">
<path d="M25.6153 7.10957L25.9733 8.01327C26.5444 7.93262 27.1012 7.80276 27.6412 7.62694C27.1428 8.28646 26.5853 8.88013 25.9785 9.39724L25.794 9.55454L25.8032 9.79686C25.8133 10.0602 25.8188 10.3255 25.8188 10.5875C25.8188 14.6291 24.5115 18.9785 22.0225 22.3062C19.5413 25.6235 15.8988 27.9141 11.1915 27.9141H11.1909C8.97698 27.917 6.79486 27.3201 4.81009 26.1743C7.1613 26.0555 9.41598 25.0715 11.2549 23.3702L12.163 22.53L10.9261 22.5033C9.9424 22.482 8.97811 22.099 8.1695 21.3908C7.53648 20.8365 7.02418 20.1043 6.67964 19.2577C7.29245 19.2907 7.90746 19.2117 8.50174 19.0222L10.2145 18.4759L8.46563 18.0594C7.39455 17.8043 6.41254 17.1157 5.69762 16.0858C5.12096 15.2551 4.75107 14.2486 4.62923 13.1818C5.21662 13.4368 5.83949 13.5811 6.47424 13.605L8.00942 13.6625L6.80221 12.7124C6.1421 12.1929 5.59332 11.483 5.21124 10.6402C4.82914 9.79743 4.62783 8.85235 4.6283 7.88965V7.8894C4.6283 7.13581 4.74992 6.41657 4.96957 5.75689C6.24407 7.41736 7.77131 8.79497 9.47931 9.81548C11.4334 10.983 13.5788 11.656 15.7761 11.786L16.4224 11.8242L16.296 11.1892C16.0465 9.93615 16.1557 8.62164 16.6036 7.45333C17.0515 6.28506 17.8079 5.34044 18.7398 4.75239C19.6693 4.16593 20.7267 3.96244 21.7525 4.16162C22.7801 4.36114 23.7394 4.95807 24.4734 5.88171L24.6699 6.12894L24.9776 6.05776C25.7568 5.8775 26.5148 5.60065 27.2391 5.2336C26.8295 6.00211 26.273 6.64578 25.6153 7.10957Z" stroke="#6039CF"/>
</svg>
