<svg width="32" height="32" viewBox="0 0 32 32" fill="none" xmlns="http://www.w3.org/2000/svg">
<path d="M29.5 16V16V15.9999V15.9994L29.5 15.9972L29.5 15.9879L29.4999 15.9503C29.4997 15.9171 29.4994 15.8678 29.4989 15.8041C29.4978 15.6767 29.4955 15.4918 29.491 15.2629C29.4819 14.8048 29.4638 14.1717 29.4276 13.4715C29.3545 12.0563 29.2097 10.4182 28.9327 9.38279C28.796 8.87373 28.5281 8.40951 28.1556 8.03657C27.7832 7.66373 27.3195 7.3952 26.8108 7.25784L29.5 16ZM29.5 16V16.0001V16.0006L29.5 16.0028L29.5 16.0121L29.4999 16.0497C29.4997 16.0829 29.4994 16.1322 29.4989 16.1959C29.4978 16.3233 29.4955 16.5082 29.491 16.7371C29.4819 17.1952 29.4638 17.8283 29.4276 18.5285C29.3545 19.9439 29.2096 21.5822 28.9326 22.6177L28.9325 22.618C28.6566 23.6519 27.8443 24.4664 26.8117 24.7419L26.8108 24.7422C26.3168 24.875 25.405 24.9831 24.2731 25.066C23.1553 25.1479 21.864 25.2027 20.6363 25.2393C19.4093 25.2759 18.2499 25.2942 17.3969 25.3033C16.9705 25.3079 16.621 25.3102 16.3782 25.3114C16.2567 25.3119 16.162 25.3122 16.0978 25.3124L16.0246 25.3125L16.0061 25.3125L16.0015 25.3125H16.0003H16.0001L16 25.8125L15.9999 25.3125H15.9997H15.9985L15.9939 25.3125L15.9754 25.3125L15.9022 25.3124C15.838 25.3122 15.7433 25.3119 15.6218 25.3114C15.379 25.3102 15.0295 25.3079 14.6031 25.3033C13.7501 25.2942 12.5907 25.2759 11.3637 25.2393C10.136 25.2027 8.84474 25.1479 7.7269 25.066C6.59497 24.9831 5.6832 24.875 5.18924 24.7422L5.1886 24.742C4.15838 24.4664 3.34325 23.6515 3.06747 22.618L3.06739 22.6177C2.79039 21.5822 2.64552 19.9439 2.57238 18.5285C2.5362 17.8283 2.51809 17.1952 2.50903 16.7371C2.50451 16.5082 2.50225 16.3233 2.50112 16.1959C2.50056 16.1322 2.50028 16.0829 2.50014 16.0497L2.50002 16.0121L2.5 16.0028L2.5 16.0006L2.5 16.0001V16V15.9999L2.5 15.9994L2.5 15.9972L2.50002 15.9879L2.50014 15.9503C2.50028 15.9171 2.50056 15.8678 2.50112 15.8041C2.50225 15.6767 2.50451 15.4918 2.50903 15.2628C2.51809 14.8047 2.5362 14.1715 2.57238 13.4711C2.64551 12.0554 2.79037 10.4163 3.06739 9.37921C3.20359 8.87008 3.47136 8.40574 3.84379 8.03283C4.21616 7.65999 4.68006 7.39167 5.18891 7.2548C5.68319 7.12263 6.59503 7.01515 7.72671 6.93271C8.8446 6.85128 10.1359 6.79675 11.3637 6.76033C12.5906 6.72393 13.7501 6.70571 14.603 6.6966C15.0294 6.69205 15.379 6.68977 15.6218 6.68864C15.7432 6.68807 15.838 6.68778 15.9022 6.68764L15.9754 6.68752L15.9939 6.6875L15.9985 6.6875L15.9997 6.6875L15.9999 6.6875L16 6.1875M29.5 16L16 6.1875M16 6.1875L16.0001 6.6875M16 6.1875L16.0001 6.6875M16.0001 6.6875L16.0003 6.6875M16.0001 6.6875L16.0003 6.6875M16.0003 6.6875L16.0015 6.6875M16.0003 6.6875L16.0015 6.6875M16.0015 6.6875L16.0061 6.6875M16.0015 6.6875L16.0061 6.6875M16.0061 6.6875L16.0246 6.68752M16.0061 6.6875L16.0246 6.68752M16.0246 6.68752L16.0978 6.68764M16.0246 6.68752L16.0978 6.68764M16.0978 6.68764C16.162 6.68778 16.2567 6.68807 16.3782 6.68864M16.0978 6.68764L16.3782 6.68864M16.3782 6.68864C16.621 6.68979 16.9705 6.69207 17.3969 6.69665M16.3782 6.68864L17.3969 6.69665M17.3969 6.69665C18.2499 6.70581 19.4093 6.72412 20.6363 6.76072M17.3969 6.69665L20.6363 6.76072M20.6363 6.76072C21.864 6.79733 23.1553 6.85215 24.2731 6.93402M20.6363 6.76072L24.2731 6.93402M24.2731 6.93402C25.4047 7.01689 26.3163 7.12493 26.8104 7.25773L24.2731 6.93402ZM12.7188 20.1875V21.0569L13.4702 20.6197L20.7202 16.4009L21.4684 15.9655L20.7174 15.535L13.4674 11.3787L12.7188 10.9495V11.8125V20.1875Z" stroke="#6039CF"/>
</svg>
