<svg width="668" height="200" viewBox="0 0 668 200" fill="none" xmlns="http://www.w3.org/2000/svg">
<path d="M65 165H663" stroke="black"/>
<path d="M65 171V165" stroke="black"/>
<path d="M65 191.639C64.358 191.639 63.8111 191.465 63.3594 191.115C62.9077 190.763 62.5625 190.253 62.3239 189.585C62.0852 188.915 61.9659 188.105 61.9659 187.156C61.9659 186.213 62.0852 185.408 62.3239 184.74C62.5653 184.07 62.9119 183.558 63.3636 183.206C63.8182 182.851 64.3636 182.673 65 182.673C65.6364 182.673 66.1804 182.851 66.6321 183.206C67.0866 183.558 67.4332 184.07 67.6719 184.74C67.9134 185.408 68.0341 186.213 68.0341 187.156C68.0341 188.105 67.9148 188.915 67.6761 189.585C67.4375 190.253 67.0923 190.763 66.6406 191.115C66.1889 191.465 65.642 191.639 65 191.639ZM65 190.702C65.6364 190.702 66.1307 190.395 66.483 189.781C66.8352 189.168 67.0114 188.293 67.0114 187.156C67.0114 186.401 66.9304 185.757 66.7685 185.226C66.6094 184.695 66.3793 184.29 66.0781 184.011C65.7798 183.733 65.4205 183.594 65 183.594C64.3693 183.594 63.8764 183.905 63.5213 184.527C63.1662 185.146 62.9886 186.023 62.9886 187.156C62.9886 187.912 63.0682 188.554 63.2273 189.083C63.3864 189.611 63.6151 190.013 63.9134 190.288C64.2145 190.564 64.5767 190.702 65 190.702Z" fill="black"/>
<path d="M131.444 171V165" stroke="black"/>
<path d="M132.627 182.793V191.52H131.57V183.901H131.519L129.388 185.315V184.242L131.57 182.793H132.627Z" fill="black"/>
<path d="M197.889 171V165" stroke="black"/>
<path d="M195.16 191.52V190.753L198.04 187.6C198.378 187.23 198.657 186.909 198.875 186.636C199.094 186.361 199.256 186.102 199.361 185.861C199.469 185.617 199.523 185.361 199.523 185.094C199.523 184.787 199.449 184.521 199.302 184.297C199.157 184.073 198.958 183.899 198.705 183.777C198.452 183.655 198.168 183.594 197.853 183.594C197.517 183.594 197.225 183.663 196.975 183.803C196.728 183.939 196.536 184.131 196.4 184.378C196.266 184.625 196.199 184.915 196.199 185.247H195.194C195.194 184.736 195.312 184.287 195.547 183.901C195.783 183.514 196.104 183.213 196.51 182.997C196.919 182.781 197.378 182.673 197.887 182.673C198.398 182.673 198.851 182.781 199.246 182.997C199.641 183.213 199.951 183.504 200.175 183.871C200.4 184.237 200.512 184.645 200.512 185.094C200.512 185.415 200.454 185.729 200.337 186.036C200.223 186.34 200.025 186.679 199.74 187.054C199.459 187.426 199.069 187.881 198.569 188.418L196.608 190.514V190.583H200.665V191.52H195.16Z" fill="black"/>
<path d="M264.333 171V165" stroke="black"/>
<path d="M264.365 191.639C263.802 191.639 263.301 191.543 262.861 191.35C262.423 191.156 262.075 190.888 261.817 190.544C261.561 190.198 261.422 189.796 261.399 189.338H262.473C262.496 189.619 262.592 189.862 262.763 190.067C262.933 190.269 263.156 190.425 263.432 190.536C263.707 190.646 264.013 190.702 264.348 190.702C264.723 190.702 265.055 190.636 265.345 190.506C265.635 190.375 265.862 190.193 266.027 189.96C266.192 189.727 266.274 189.458 266.274 189.151C266.274 188.83 266.195 188.547 266.035 188.303C265.876 188.056 265.643 187.862 265.337 187.723C265.03 187.584 264.655 187.514 264.212 187.514H263.513V186.577H264.212C264.558 186.577 264.862 186.514 265.123 186.389C265.388 186.264 265.594 186.088 265.741 185.861C265.892 185.634 265.967 185.367 265.967 185.06C265.967 184.764 265.902 184.507 265.771 184.288C265.641 184.07 265.456 183.899 265.217 183.777C264.981 183.655 264.703 183.594 264.382 183.594C264.081 183.594 263.797 183.649 263.53 183.76C263.266 183.868 263.05 184.026 262.882 184.233C262.714 184.438 262.623 184.685 262.609 184.975H261.587C261.604 184.517 261.741 184.117 262 183.773C262.258 183.426 262.597 183.156 263.014 182.963C263.435 182.77 263.896 182.673 264.399 182.673C264.939 182.673 265.402 182.783 265.788 183.002C266.175 183.217 266.472 183.503 266.679 183.858C266.886 184.213 266.99 184.597 266.99 185.009C266.99 185.5 266.861 185.919 266.602 186.266C266.347 186.612 265.998 186.852 265.558 186.986V187.054C266.109 187.145 266.54 187.379 266.849 187.757C267.159 188.132 267.314 188.597 267.314 189.151C267.314 189.625 267.185 190.051 266.926 190.429C266.67 190.804 266.321 191.1 265.878 191.315C265.435 191.531 264.93 191.639 264.365 191.639Z" fill="black"/>
<path d="M330.777 171V165" stroke="black"/>
<path d="M327.627 189.73V188.861L331.462 182.793H332.093V184.139H331.666L328.769 188.725V188.793H333.933V189.73H327.627ZM331.735 191.52V189.466V189.061V182.793H332.74V191.52H331.735Z" fill="black"/>
<path d="M397.223 171V165" stroke="black"/>
<path d="M397.203 191.639C396.703 191.639 396.253 191.54 395.852 191.341C395.452 191.142 395.131 190.869 394.889 190.523C394.648 190.176 394.515 189.781 394.493 189.338H395.515C395.555 189.733 395.734 190.06 396.052 190.318C396.373 190.574 396.757 190.702 397.203 190.702C397.561 190.702 397.879 190.618 398.157 190.45C398.439 190.283 398.659 190.053 398.818 189.76C398.98 189.465 399.061 189.131 399.061 188.759C399.061 188.378 398.977 188.038 398.809 187.74C398.645 187.439 398.417 187.202 398.128 187.029C397.838 186.855 397.507 186.767 397.135 186.764C396.868 186.761 396.594 186.803 396.312 186.888C396.031 186.97 395.8 187.077 395.618 187.208L394.629 187.088L395.157 182.793H399.692V183.73H396.044L395.737 186.304H395.788C395.967 186.162 396.192 186.044 396.461 185.95C396.731 185.857 397.013 185.81 397.305 185.81C397.839 185.81 398.315 185.938 398.733 186.193C399.153 186.446 399.483 186.793 399.721 187.233C399.963 187.673 400.084 188.176 400.084 188.742C400.084 189.298 399.959 189.796 399.709 190.233C399.461 190.668 399.121 191.011 398.686 191.264C398.251 191.514 397.757 191.639 397.203 191.639Z" fill="black"/>
<path d="M463.667 171V165" stroke="black"/>
<path d="M463.724 191.639C463.366 191.634 463.008 191.565 462.65 191.435C462.292 191.304 461.965 191.084 461.67 190.774C461.375 190.462 461.137 190.04 460.958 189.509C460.779 188.975 460.69 188.304 460.69 187.497C460.69 186.725 460.762 186.04 460.907 185.443C461.052 184.844 461.262 184.34 461.538 183.931C461.813 183.519 462.146 183.206 462.535 182.993C462.927 182.78 463.369 182.673 463.86 182.673C464.349 182.673 464.784 182.771 465.164 182.967C465.548 183.161 465.86 183.431 466.102 183.777C466.343 184.124 466.5 184.523 466.571 184.975H465.531C465.434 184.583 465.247 184.257 464.968 183.999C464.69 183.74 464.321 183.611 463.86 183.611C463.184 183.611 462.652 183.905 462.262 184.493C461.876 185.081 461.681 185.906 461.679 186.969H461.747C461.906 186.727 462.095 186.521 462.313 186.351C462.535 186.178 462.779 186.044 463.046 185.95C463.313 185.857 463.596 185.81 463.894 185.81C464.394 185.81 464.852 185.935 465.267 186.185C465.681 186.432 466.014 186.774 466.264 187.212C466.514 187.646 466.639 188.145 466.639 188.708C466.639 189.247 466.518 189.742 466.277 190.19C466.035 190.636 465.696 190.992 465.258 191.256C464.823 191.517 464.312 191.645 463.724 191.639ZM463.724 190.702C464.082 190.702 464.403 190.612 464.687 190.433C464.974 190.254 465.2 190.014 465.365 189.713C465.532 189.412 465.616 189.077 465.616 188.708C465.616 188.347 465.535 188.019 465.373 187.723C465.214 187.425 464.994 187.188 464.713 187.011C464.434 186.835 464.116 186.747 463.758 186.747C463.488 186.747 463.237 186.801 463.004 186.909C462.771 187.014 462.566 187.159 462.39 187.344C462.217 187.529 462.081 187.74 461.981 187.979C461.882 188.215 461.832 188.463 461.832 188.725C461.832 189.071 461.913 189.395 462.075 189.696C462.24 189.997 462.464 190.24 462.748 190.425C463.035 190.61 463.36 190.702 463.724 190.702Z" fill="black"/>
<path d="M530.111 171V165" stroke="black"/>
<path d="M527.86 191.52L531.763 183.798V183.73H527.263V182.793H532.854V183.781L528.968 191.52H527.86Z" fill="black"/>
<path d="M596.556 171V165" stroke="black"/>
<path d="M596.557 191.639C595.972 191.639 595.455 191.536 595.006 191.328C594.56 191.118 594.212 190.83 593.962 190.463C593.712 190.094 593.589 189.673 593.591 189.202C593.589 188.833 593.661 188.492 593.809 188.179C593.956 187.864 594.158 187.601 594.414 187.391C594.672 187.178 594.961 187.043 595.279 186.986V186.935C594.861 186.827 594.529 186.592 594.282 186.232C594.035 185.868 593.912 185.455 593.915 184.992C593.912 184.548 594.025 184.152 594.252 183.803C594.479 183.453 594.792 183.178 595.189 182.976C595.59 182.774 596.046 182.673 596.557 182.673C597.063 182.673 597.515 182.774 597.912 182.976C598.31 183.178 598.623 183.453 598.85 183.803C599.08 184.152 599.196 184.548 599.199 184.992C599.196 185.455 599.07 185.868 598.82 186.232C598.573 186.592 598.245 186.827 597.836 186.935V186.986C598.151 187.043 598.435 187.178 598.688 187.391C598.941 187.601 599.142 187.864 599.293 188.179C599.444 188.492 599.52 188.833 599.523 189.202C599.52 189.673 599.392 190.094 599.14 190.463C598.89 190.83 598.542 191.118 598.096 191.328C597.652 191.536 597.14 191.639 596.557 191.639ZM596.557 190.702C596.952 190.702 597.293 190.638 597.58 190.51C597.867 190.382 598.089 190.202 598.245 189.969C598.401 189.736 598.481 189.463 598.483 189.151C598.481 188.821 598.395 188.53 598.228 188.277C598.06 188.024 597.831 187.825 597.542 187.681C597.255 187.536 596.927 187.463 596.557 187.463C596.185 187.463 595.853 187.536 595.56 187.681C595.27 187.825 595.042 188.024 594.874 188.277C594.709 188.53 594.628 188.821 594.631 189.151C594.628 189.463 594.704 189.736 594.857 189.969C595.013 190.202 595.236 190.382 595.526 190.51C595.816 190.638 596.16 190.702 596.557 190.702ZM596.557 186.56C596.87 186.56 597.147 186.497 597.388 186.372C597.633 186.247 597.824 186.073 597.964 185.848C598.103 185.624 598.174 185.361 598.177 185.06C598.174 184.764 598.104 184.507 597.968 184.288C597.831 184.067 597.642 183.896 597.401 183.777C597.16 183.655 596.878 183.594 596.557 183.594C596.231 183.594 595.945 183.655 595.701 183.777C595.456 183.896 595.267 184.067 595.134 184.288C595 184.507 594.935 184.764 594.938 185.06C594.935 185.361 595.002 185.624 595.138 185.848C595.277 186.073 595.469 186.247 595.714 186.372C595.958 186.497 596.239 186.56 596.557 186.56Z" fill="black"/>
<path d="M663 171V165" stroke="black"/>
<path d="M662.938 182.673C663.296 182.676 663.654 182.744 664.012 182.878C664.369 183.011 664.696 183.233 664.992 183.543C665.287 183.85 665.524 184.269 665.703 184.8C665.882 185.331 665.972 185.997 665.972 186.798C665.972 187.574 665.898 188.263 665.75 188.865C665.605 189.465 665.395 189.97 665.119 190.382C664.847 190.794 664.514 191.107 664.122 191.32C663.733 191.533 663.293 191.639 662.801 191.639C662.313 191.639 661.877 191.543 661.493 191.35C661.112 191.154 660.8 190.882 660.556 190.536C660.314 190.186 660.159 189.781 660.091 189.321H661.131C661.225 189.722 661.411 190.053 661.689 190.314C661.97 190.573 662.341 190.702 662.801 190.702C663.475 190.702 664.006 190.408 664.395 189.82C664.787 189.232 664.983 188.401 664.983 187.327H664.915C664.756 187.565 664.567 187.771 664.348 187.945C664.129 188.118 663.887 188.252 663.619 188.345C663.352 188.439 663.068 188.486 662.767 188.486C662.267 188.486 661.808 188.362 661.391 188.115C660.976 187.865 660.644 187.523 660.394 187.088C660.146 186.651 660.023 186.151 660.023 185.588C660.023 185.054 660.142 184.565 660.381 184.122C660.622 183.676 660.96 183.321 661.395 183.057C661.833 182.793 662.347 182.665 662.938 182.673ZM662.938 183.611C662.58 183.611 662.257 183.7 661.97 183.879C661.686 184.056 661.46 184.294 661.293 184.595C661.128 184.894 661.046 185.225 661.046 185.588C661.046 185.952 661.125 186.283 661.284 186.581C661.446 186.877 661.666 187.112 661.945 187.288C662.226 187.462 662.546 187.548 662.904 187.548C663.173 187.548 663.425 187.496 663.658 187.391C663.891 187.283 664.094 187.136 664.267 186.952C664.443 186.764 664.581 186.553 664.681 186.317C664.78 186.078 664.83 185.83 664.83 185.571C664.83 185.23 664.747 184.911 664.583 184.612C664.421 184.314 664.196 184.073 663.909 183.888C663.625 183.703 663.301 183.611 662.938 183.611Z" fill="black"/>
<path d="M65 5V165" stroke="black"/>
<path d="M59 165H65" stroke="black"/>
<path d="M50.25 169.379C49.608 169.379 49.0611 169.205 48.6094 168.855C48.1577 168.503 47.8125 167.993 47.5739 167.325C47.3352 166.655 47.2159 165.845 47.2159 164.896C47.2159 163.953 47.3352 163.148 47.5739 162.48C47.8153 161.81 48.1619 161.298 48.6136 160.946C49.0682 160.591 49.6136 160.413 50.25 160.413C50.8864 160.413 51.4304 160.591 51.8821 160.946C52.3366 161.298 52.6832 161.81 52.9219 162.48C53.1634 163.148 53.2841 163.953 53.2841 164.896C53.2841 165.845 53.1648 166.655 52.9261 167.325C52.6875 167.993 52.3423 168.503 51.8906 168.855C51.4389 169.205 50.892 169.379 50.25 169.379ZM50.25 168.442C50.8864 168.442 51.3807 168.135 51.733 167.521C52.0852 166.908 52.2614 166.033 52.2614 164.896C52.2614 164.141 52.1804 163.497 52.0185 162.966C51.8594 162.435 51.6293 162.03 51.3281 161.751C51.0298 161.473 50.6705 161.334 50.25 161.334C49.6193 161.334 49.1264 161.645 48.7713 162.267C48.4162 162.886 48.2386 163.763 48.2386 164.896C48.2386 165.652 48.3182 166.294 48.4773 166.823C48.6364 167.351 48.8651 167.753 49.1634 168.028C49.4645 168.304 49.8267 168.442 50.25 168.442Z" fill="black"/>
<path d="M59 125H65" stroke="black"/>
<path d="M32.837 129.26V128.493L35.7177 125.34C36.0558 124.97 36.3342 124.649 36.5529 124.376C36.7717 124.101 36.9336 123.842 37.0387 123.601C37.1467 123.357 37.2006 123.101 37.2006 122.834C37.2006 122.527 37.1268 122.261 36.979 122.037C36.8342 121.813 36.6353 121.639 36.3825 121.517C36.1296 121.395 35.8455 121.334 35.5302 121.334C35.195 121.334 34.9023 121.403 34.6523 121.543C34.4052 121.679 34.2134 121.871 34.0771 122.118C33.9435 122.365 33.8768 122.655 33.8768 122.987H32.8711C32.8711 122.476 32.989 122.027 33.2248 121.641C33.4606 121.254 33.7816 120.953 34.1879 120.737C34.5969 120.521 35.0558 120.413 35.5643 120.413C36.0756 120.413 36.5288 120.521 36.9237 120.737C37.3185 120.953 37.6282 121.244 37.8526 121.611C38.0771 121.977 38.1893 122.385 38.1893 122.834C38.1893 123.155 38.131 123.469 38.0146 123.776C37.9009 124.08 37.7021 124.419 37.418 124.794C37.1367 125.166 36.7461 125.621 36.2461 126.158L34.2859 128.254V128.323H38.3427V129.26H32.837ZM42.8299 129.379C42.3299 129.379 41.8796 129.28 41.479 129.081C41.0785 128.882 40.7575 128.609 40.516 128.263C40.2745 127.916 40.1424 127.521 40.1197 127.078H41.1424C41.1822 127.473 41.3612 127.8 41.6793 128.058C42.0004 128.314 42.3839 128.442 42.8299 128.442C43.1879 128.442 43.506 128.358 43.7844 128.19C44.0657 128.023 44.2859 127.793 44.445 127.5C44.6069 127.205 44.6879 126.871 44.6879 126.499C44.6879 126.118 44.604 125.778 44.4364 125.48C44.2717 125.179 44.0444 124.942 43.7546 124.769C43.4648 124.595 43.1339 124.507 42.7617 124.504C42.4947 124.501 42.2205 124.543 41.9393 124.628C41.658 124.71 41.4265 124.817 41.2447 124.948L40.256 124.828L40.7844 120.533H45.3185V121.47H41.6708L41.364 124.044H41.4151C41.5941 123.902 41.8185 123.784 42.0884 123.69C42.3583 123.597 42.6396 123.55 42.9322 123.55C43.4663 123.55 43.9421 123.678 44.3597 123.933C44.7802 124.186 45.1097 124.533 45.3484 124.973C45.5898 125.413 45.7106 125.916 45.7106 126.482C45.7106 127.038 45.5856 127.536 45.3356 127.973C45.0884 128.408 44.7475 128.751 44.3129 129.004C43.8782 129.254 43.3839 129.379 42.8299 129.379ZM50.25 129.379C49.608 129.379 49.0611 129.205 48.6094 128.855C48.1577 128.503 47.8125 127.993 47.5739 127.325C47.3352 126.655 47.2159 125.845 47.2159 124.896C47.2159 123.953 47.3352 123.148 47.5739 122.48C47.8153 121.81 48.1619 121.298 48.6136 120.946C49.0682 120.591 49.6136 120.413 50.25 120.413C50.8864 120.413 51.4304 120.591 51.8821 120.946C52.3366 121.298 52.6832 121.81 52.9219 122.48C53.1634 123.148 53.2841 123.953 53.2841 124.896C53.2841 125.845 53.1648 126.655 52.9261 127.325C52.6875 127.993 52.3423 128.503 51.8906 128.855C51.4389 129.205 50.892 129.379 50.25 129.379ZM50.25 128.442C50.8864 128.442 51.3807 128.135 51.733 127.521C52.0852 126.908 52.2614 126.033 52.2614 124.896C52.2614 124.141 52.1804 123.497 52.0185 122.966C51.8594 122.435 51.6293 122.03 51.3281 121.751C51.0298 121.473 50.6705 121.334 50.25 121.334C49.6193 121.334 49.1264 121.645 48.7713 122.267C48.4162 122.886 48.2386 123.763 48.2386 124.896C48.2386 125.652 48.3182 126.294 48.4773 126.823C48.6364 127.351 48.8651 127.753 49.1634 128.028C49.4645 128.304 49.8267 128.442 50.25 128.442Z" fill="black"/>
<path d="M59 85H65" stroke="black"/>
<path d="M35.3299 89.3793C34.8299 89.3793 34.3796 89.2799 33.979 89.081C33.5785 88.8822 33.2575 88.6094 33.016 88.2629C32.7745 87.9163 32.6424 87.5214 32.6197 87.0782H33.6424C33.6822 87.4731 33.8612 87.7998 34.1793 88.0583C34.5004 88.314 34.8839 88.4418 35.3299 88.4418C35.6879 88.4418 36.006 88.358 36.2844 88.1904C36.5657 88.0228 36.7859 87.7927 36.945 87.5001C37.1069 87.2046 37.1879 86.8708 37.1879 86.4986C37.1879 86.118 37.104 85.7785 36.9364 85.4802C36.7717 85.179 36.5444 84.9418 36.2546 84.7685C35.9648 84.5952 35.6339 84.5072 35.2617 84.5043C34.9947 84.5015 34.7205 84.5427 34.4393 84.6279C34.158 84.7103 33.9265 84.8168 33.7447 84.9475L32.756 84.8282L33.2844 80.5327H37.8185V81.4702H34.1708L33.864 84.0441H33.9151C34.0941 83.9021 34.3185 83.7842 34.5884 83.6904C34.8583 83.5967 35.1396 83.5498 35.4322 83.5498C35.9663 83.5498 36.4421 83.6776 36.8597 83.9333C37.2802 84.1861 37.6097 84.5327 37.8484 84.9731C38.0898 85.4134 38.2106 85.9163 38.2106 86.4816C38.2106 87.0384 38.0856 87.5356 37.8356 87.9731C37.5884 88.4077 37.2475 88.7515 36.8129 89.0043C36.3782 89.2543 35.8839 89.3793 35.3299 89.3793ZM42.75 89.3793C42.108 89.3793 41.5611 89.2046 41.1094 88.8552C40.6577 88.5029 40.3125 87.993 40.0739 87.3254C39.8352 86.6549 39.7159 85.8452 39.7159 84.8964C39.7159 83.9532 39.8352 83.1478 40.0739 82.4802C40.3153 81.8097 40.6619 81.2984 41.1136 80.9461C41.5682 80.591 42.1136 80.4134 42.75 80.4134C43.3864 80.4134 43.9304 80.591 44.3821 80.9461C44.8366 81.2984 45.1832 81.8097 45.4219 82.4802C45.6634 83.1478 45.7841 83.9532 45.7841 84.8964C45.7841 85.8452 45.6648 86.6549 45.4261 87.3254C45.1875 87.993 44.8423 88.5029 44.3906 88.8552C43.9389 89.2046 43.392 89.3793 42.75 89.3793ZM42.75 88.4418C43.3864 88.4418 43.8807 88.135 44.233 87.5214C44.5852 86.9077 44.7614 86.0327 44.7614 84.8964C44.7614 84.1407 44.6804 83.4972 44.5185 82.966C44.3594 82.4347 44.1293 82.0299 43.8281 81.7515C43.5298 81.4731 43.1705 81.3339 42.75 81.3339C42.1193 81.3339 41.6264 81.645 41.2713 82.2671C40.9162 82.8864 40.7386 83.7629 40.7386 84.8964C40.7386 85.6521 40.8182 86.2941 40.9773 86.8225C41.1364 87.3509 41.3651 87.7529 41.6634 88.0285C41.9645 88.304 42.3267 88.4418 42.75 88.4418ZM50.25 89.3793C49.608 89.3793 49.0611 89.2046 48.6094 88.8552C48.1577 88.5029 47.8125 87.993 47.5739 87.3254C47.3352 86.6549 47.2159 85.8452 47.2159 84.8964C47.2159 83.9532 47.3352 83.1478 47.5739 82.4802C47.8153 81.8097 48.1619 81.2984 48.6136 80.9461C49.0682 80.591 49.6136 80.4134 50.25 80.4134C50.8864 80.4134 51.4304 80.591 51.8821 80.9461C52.3366 81.2984 52.6832 81.8097 52.9219 82.4802C53.1634 83.1478 53.2841 83.9532 53.2841 84.8964C53.2841 85.8452 53.1648 86.6549 52.9261 87.3254C52.6875 87.993 52.3423 88.5029 51.8906 88.8552C51.4389 89.2046 50.892 89.3793 50.25 89.3793ZM50.25 88.4418C50.8864 88.4418 51.3807 88.135 51.733 87.5214C52.0852 86.9077 52.2614 86.0327 52.2614 84.8964C52.2614 84.1407 52.1804 83.4972 52.0185 82.966C51.8594 82.4347 51.6293 82.0299 51.3281 81.7515C51.0298 81.4731 50.6705 81.3339 50.25 81.3339C49.6193 81.3339 49.1264 81.645 48.7713 82.2671C48.4162 82.8864 48.2386 83.7629 48.2386 84.8964C48.2386 85.6521 48.3182 86.2941 48.4773 86.8225C48.6364 87.3509 48.8651 87.7529 49.1634 88.0285C49.4645 88.304 49.8267 88.4418 50.25 88.4418Z" fill="black"/>
<path d="M59 45H65" stroke="black"/>
<path d="M33.6371 49.26L37.5405 41.5384V41.4702H33.0405V40.5327H38.6314V41.5214L34.745 49.26H33.6371ZM42.8299 49.3793C42.3299 49.3793 41.8796 49.2799 41.479 49.081C41.0785 48.8822 40.7575 48.6094 40.516 48.2629C40.2745 47.9163 40.1424 47.5214 40.1197 47.0782H41.1424C41.1822 47.4731 41.3612 47.7998 41.6793 48.0583C42.0004 48.314 42.3839 48.4418 42.8299 48.4418C43.1879 48.4418 43.506 48.358 43.7844 48.1904C44.0657 48.0228 44.2859 47.7927 44.445 47.5001C44.6069 47.2046 44.6879 46.8708 44.6879 46.4986C44.6879 46.118 44.604 45.7785 44.4364 45.4802C44.2717 45.179 44.0444 44.9418 43.7546 44.7685C43.4648 44.5952 43.1339 44.5072 42.7617 44.5043C42.4947 44.5015 42.2205 44.5427 41.9393 44.6279C41.658 44.7103 41.4265 44.8168 41.2447 44.9475L40.256 44.8282L40.7844 40.5327H45.3185V41.4702H41.6708L41.364 44.0441H41.4151C41.5941 43.9021 41.8185 43.7842 42.0884 43.6904C42.3583 43.5967 42.6396 43.5498 42.9322 43.5498C43.4663 43.5498 43.9421 43.6776 44.3597 43.9333C44.7802 44.1861 45.1097 44.5327 45.3484 44.9731C45.5898 45.4134 45.7106 45.9163 45.7106 46.4816C45.7106 47.0384 45.5856 47.5356 45.3356 47.9731C45.0884 48.4077 44.7475 48.7515 44.3129 49.0043C43.8782 49.2543 43.3839 49.3793 42.8299 49.3793ZM50.25 49.3793C49.608 49.3793 49.0611 49.2046 48.6094 48.8552C48.1577 48.5029 47.8125 47.993 47.5739 47.3254C47.3352 46.6549 47.2159 45.8452 47.2159 44.8964C47.2159 43.9532 47.3352 43.1478 47.5739 42.4802C47.8153 41.8097 48.1619 41.2984 48.6136 40.9461C49.0682 40.591 49.6136 40.4134 50.25 40.4134C50.8864 40.4134 51.4304 40.591 51.8821 40.9461C52.3366 41.2984 52.6832 41.8097 52.9219 42.4802C53.1634 43.1478 53.2841 43.9532 53.2841 44.8964C53.2841 45.8452 53.1648 46.6549 52.9261 47.3254C52.6875 47.993 52.3423 48.5029 51.8906 48.8552C51.4389 49.2046 50.892 49.3793 50.25 49.3793ZM50.25 48.4418C50.8864 48.4418 51.3807 48.135 51.733 47.5214C52.0852 46.9077 52.2614 46.0327 52.2614 44.8964C52.2614 44.1407 52.1804 43.4972 52.0185 42.966C51.8594 42.4347 51.6293 42.0299 51.3281 41.7515C51.0298 41.4731 50.6705 41.3339 50.25 41.3339C49.6193 41.3339 49.1264 41.645 48.7713 42.2671C48.4162 42.8864 48.2386 43.7629 48.2386 44.8964C48.2386 45.6521 48.3182 46.2941 48.4773 46.8225C48.6364 47.3509 48.8651 47.7529 49.1634 48.0285C49.4645 48.304 49.8267 48.4418 50.25 48.4418Z" fill="black"/>
<path d="M59 5H65" stroke="black"/>
<path d="M29.8935 4.72805V13.4553H28.8366V5.836H28.7855L26.6548 7.25078V6.17691L28.8366 4.72805H29.8935ZM35.25 13.5746C34.608 13.5746 34.0611 13.3999 33.6094 13.0505C33.1577 12.6982 32.8125 12.1883 32.5739 11.5207C32.3352 10.8502 32.2159 10.0405 32.2159 9.09169C32.2159 8.1485 32.3352 7.34311 32.5739 6.67549C32.8153 6.00504 33.1619 5.49367 33.6136 5.1414C34.0682 4.78629 34.6136 4.60873 35.25 4.60873C35.8864 4.60873 36.4304 4.78629 36.8821 5.1414C37.3366 5.49367 37.6832 6.00504 37.9219 6.67549C38.1634 7.34311 38.2841 8.1485 38.2841 9.09169C38.2841 10.0405 38.1648 10.8502 37.9261 11.5207C37.6875 12.1883 37.3423 12.6982 36.8906 13.0505C36.4389 13.3999 35.892 13.5746 35.25 13.5746ZM35.25 12.6371C35.8864 12.6371 36.3807 12.3303 36.733 11.7167C37.0852 11.103 37.2614 10.228 37.2614 9.09169C37.2614 8.336 37.1804 7.69254 37.0185 7.16129C36.8594 6.63004 36.6293 6.22521 36.3281 5.9468C36.0298 5.66839 35.6705 5.52919 35.25 5.52919C34.6193 5.52919 34.1264 5.84027 33.7713 6.46242C33.4162 7.08174 33.2386 7.95816 33.2386 9.09169C33.2386 9.84737 33.3182 10.4894 33.4773 11.0178C33.6364 11.5462 33.8651 11.9482 34.1634 12.2238C34.4645 12.4994 34.8267 12.6371 35.25 12.6371ZM42.75 13.5746C42.108 13.5746 41.5611 13.3999 41.1094 13.0505C40.6577 12.6982 40.3125 12.1883 40.0739 11.5207C39.8352 10.8502 39.7159 10.0405 39.7159 9.09169C39.7159 8.1485 39.8352 7.34311 40.0739 6.67549C40.3153 6.00504 40.6619 5.49367 41.1136 5.1414C41.5682 4.78629 42.1136 4.60873 42.75 4.60873C43.3864 4.60873 43.9304 4.78629 44.3821 5.1414C44.8366 5.49367 45.1832 6.00504 45.4219 6.67549C45.6634 7.34311 45.7841 8.1485 45.7841 9.09169C45.7841 10.0405 45.6648 10.8502 45.4261 11.5207C45.1875 12.1883 44.8423 12.6982 44.3906 13.0505C43.9389 13.3999 43.392 13.5746 42.75 13.5746ZM42.75 12.6371C43.3864 12.6371 43.8807 12.3303 44.233 11.7167C44.5852 11.103 44.7614 10.228 44.7614 9.09169C44.7614 8.336 44.6804 7.69254 44.5185 7.16129C44.3594 6.63004 44.1293 6.22521 43.8281 5.9468C43.5298 5.66839 43.1705 5.52919 42.75 5.52919C42.1193 5.52919 41.6264 5.84027 41.2713 6.46242C40.9162 7.08174 40.7386 7.95816 40.7386 9.09169C40.7386 9.84737 40.8182 10.4894 40.9773 11.0178C41.1364 11.5462 41.3651 11.9482 41.6634 12.2238C41.9645 12.4994 42.3267 12.6371 42.75 12.6371ZM50.25 13.5746C49.608 13.5746 49.0611 13.3999 48.6094 13.0505C48.1577 12.6982 47.8125 12.1883 47.5739 11.5207C47.3352 10.8502 47.2159 10.0405 47.2159 9.09169C47.2159 8.1485 47.3352 7.34311 47.5739 6.67549C47.8153 6.00504 48.1619 5.49367 48.6136 5.1414C49.0682 4.78629 49.6136 4.60873 50.25 4.60873C50.8864 4.60873 51.4304 4.78629 51.8821 5.1414C52.3366 5.49367 52.6832 6.00504 52.9219 6.67549C53.1634 7.34311 53.2841 8.1485 53.2841 9.09169C53.2841 10.0405 53.1648 10.8502 52.9261 11.5207C52.6875 12.1883 52.3423 12.6982 51.8906 13.0505C51.4389 13.3999 50.892 13.5746 50.25 13.5746ZM50.25 12.6371C50.8864 12.6371 51.3807 12.3303 51.733 11.7167C52.0852 11.103 52.2614 10.228 52.2614 9.09169C52.2614 8.336 52.1804 7.69254 52.0185 7.16129C51.8594 6.63004 51.6293 6.22521 51.3281 5.9468C51.0298 5.66839 50.6705 5.52919 50.25 5.52919C49.6193 5.52919 49.1264 5.84027 48.7713 6.46242C48.4162 7.08174 48.2386 7.95816 48.2386 9.09169C48.2386 9.84737 48.3182 10.4894 48.4773 11.0178C48.6364 11.5462 48.8651 11.9482 49.1634 12.2238C49.4645 12.4994 49.8267 12.6371 50.25 12.6371Z" fill="black"/>
<path d="M65 165H663" stroke="#CCCCCC"/>
<path d="M65 125H663" stroke="#CCCCCC"/>
<path d="M65 85H663" stroke="#CCCCCC"/>
<path d="M65 45H663" stroke="#CCCCCC"/>
<path d="M65 5H663" stroke="#CCCCCC"/>
<path d="M65 5V165" stroke="#CCCCCC"/>
<path d="M131.444 5V165" stroke="#CCCCCC"/>
<path d="M197.889 5V165" stroke="#CCCCCC"/>
<path d="M264.333 5V165" stroke="#CCCCCC"/>
<path d="M330.777 5V165" stroke="#CCCCCC"/>
<path d="M397.223 5V165" stroke="#CCCCCC"/>
<path d="M463.667 5V165" stroke="#CCCCCC"/>
<path d="M530.111 5V165" stroke="#CCCCCC"/>
<path d="M596.556 5V165" stroke="#CCCCCC"/>
<path d="M663 5V165" stroke="#CCCCCC"/>
<path d="M65 14.92L131.444 84.04L197.889 101.8L264.333 47.56L330.778 54.92L397.222 48.84L463.667 69.32L530.111 38.76L596.556 15.56L663 100.36V165H596.556H530.111H463.667H397.222H330.778H264.333H197.889H131.444H65V14.92Z" fill="#F5F5F5" fill-opacity="0.6"/>
<path d="M65 17.92C66.6569 17.92 68 16.5769 68 14.92C68 13.2632 66.6569 11.92 65 11.92C63.3431 11.92 62 13.2632 62 14.92C62 16.5769 63.3431 17.92 65 17.92Z" fill="#F5F5F5" fill-opacity="0.6"/>
<path d="M131.444 87.04C133.101 87.04 134.444 85.6969 134.444 84.04C134.444 82.3832 133.101 81.04 131.444 81.04C129.787 81.04 128.444 82.3832 128.444 84.04C128.444 85.6969 129.787 87.04 131.444 87.04Z" fill="#F5F5F5" fill-opacity="0.6"/>
<path d="M197.889 104.8C199.546 104.8 200.889 103.457 200.889 101.8C200.889 100.143 199.546 98.8 197.889 98.8C196.232 98.8 194.889 100.143 194.889 101.8C194.889 103.457 196.232 104.8 197.889 104.8Z" fill="#F5F5F5" fill-opacity="0.6"/>
<path d="M264.333 50.5602C265.99 50.5602 267.333 49.217 267.333 47.5602C267.333 45.9033 265.99 44.5602 264.333 44.5602C262.676 44.5602 261.333 45.9033 261.333 47.5602C261.333 49.217 262.676 50.5602 264.333 50.5602Z" fill="#F5F5F5" fill-opacity="0.6"/>
<path d="M330.777 57.92C332.434 57.92 333.777 56.5769 333.777 54.92C333.777 53.2632 332.434 51.92 330.777 51.92C329.12 51.92 327.777 53.2632 327.777 54.92C327.777 56.5769 329.12 57.92 330.777 57.92Z" fill="#F5F5F5" fill-opacity="0.6"/>
<path d="M397.223 51.84C398.88 51.84 400.223 50.4968 400.223 48.84C400.223 47.1831 398.88 45.84 397.223 45.84C395.566 45.84 394.223 47.1831 394.223 48.84C394.223 50.4968 395.566 51.84 397.223 51.84Z" fill="#F5F5F5" fill-opacity="0.6"/>
<path d="M463.667 72.3199C465.324 72.3199 466.667 70.9768 466.667 69.3199C466.667 67.6631 465.324 66.3199 463.667 66.3199C462.01 66.3199 460.667 67.6631 460.667 69.3199C460.667 70.9768 462.01 72.3199 463.667 72.3199Z" fill="#F5F5F5" fill-opacity="0.6"/>
<path d="M530.111 41.7599C531.768 41.7599 533.111 40.4167 533.111 38.7599C533.111 37.103 531.768 35.7599 530.111 35.7599C528.454 35.7599 527.111 37.103 527.111 38.7599C527.111 40.4167 528.454 41.7599 530.111 41.7599Z" fill="#F5F5F5" fill-opacity="0.6"/>
<path d="M596.556 18.5601C598.213 18.5601 599.556 17.2169 599.556 15.5601C599.556 13.9032 598.213 12.5601 596.556 12.5601C594.899 12.5601 593.556 13.9032 593.556 15.5601C593.556 17.2169 594.899 18.5601 596.556 18.5601Z" fill="#F5F5F5" fill-opacity="0.6"/>
<path d="M663 103.36C664.657 103.36 666 102.017 666 100.36C666 98.7033 664.657 97.3601 663 97.3601C661.343 97.3601 660 98.7033 660 100.36C660 102.017 661.343 103.36 663 103.36Z" fill="#F5F5F5" fill-opacity="0.6"/>
<path d="M65 145L131.444 128.04L197.889 127.88L264.333 95.56L330.778 25.8L397.222 53.48L463.667 94.7601L530.111 146.6L596.556 136.04L663 59.0801V165H596.556H530.111H463.667H397.222H330.778H264.333H197.889H131.444H65V145Z" fill="#6039CF" fill-opacity="0.6"/>
<path d="M65 148C66.6569 148 68 146.657 68 145C68 143.343 66.6569 142 65 142C63.3431 142 62 143.343 62 145C62 146.657 63.3431 148 65 148Z" fill="#6039CF" fill-opacity="0.6"/>
<path d="M131.444 131.04C133.101 131.04 134.444 129.697 134.444 128.04C134.444 126.383 133.101 125.04 131.444 125.04C129.787 125.04 128.444 126.383 128.444 128.04C128.444 129.697 129.787 131.04 131.444 131.04Z" fill="#6039CF" fill-opacity="0.6"/>
<path d="M197.889 130.88C199.546 130.88 200.889 129.537 200.889 127.88C200.889 126.223 199.546 124.88 197.889 124.88C196.232 124.88 194.889 126.223 194.889 127.88C194.889 129.537 196.232 130.88 197.889 130.88Z" fill="#6039CF" fill-opacity="0.6"/>
<path d="M264.333 98.5598C265.99 98.5598 267.333 97.2167 267.333 95.5598C267.333 93.903 265.99 92.5598 264.333 92.5598C262.676 92.5598 261.333 93.903 261.333 95.5598C261.333 97.2167 262.676 98.5598 264.333 98.5598Z" fill="#6039CF" fill-opacity="0.6"/>
<path d="M330.777 28.8C332.434 28.8 333.777 27.4569 333.777 25.8C333.777 24.1432 332.434 22.8 330.777 22.8C329.12 22.8 327.777 24.1432 327.777 25.8C327.777 27.4569 329.12 28.8 330.777 28.8Z" fill="#6039CF" fill-opacity="0.6"/>
<path d="M397.223 56.4802C398.88 56.4802 400.223 55.1371 400.223 53.4802C400.223 51.8234 398.88 50.4802 397.223 50.4802C395.566 50.4802 394.223 51.8234 394.223 53.4802C394.223 55.1371 395.566 56.4802 397.223 56.4802Z" fill="#6039CF" fill-opacity="0.6"/>
<path d="M463.667 97.76C465.324 97.76 466.667 96.4169 466.667 94.76C466.667 93.1032 465.324 91.76 463.667 91.76C462.01 91.76 460.667 93.1032 460.667 94.76C460.667 96.4169 462.01 97.76 463.667 97.76Z" fill="#6039CF" fill-opacity="0.6"/>
<path d="M530.111 149.6C531.768 149.6 533.111 148.257 533.111 146.6C533.111 144.943 531.768 143.6 530.111 143.6C528.454 143.6 527.111 144.943 527.111 146.6C527.111 148.257 528.454 149.6 530.111 149.6Z" fill="#6039CF" fill-opacity="0.6"/>
<path d="M596.556 139.04C598.213 139.04 599.556 137.697 599.556 136.04C599.556 134.383 598.213 133.04 596.556 133.04C594.899 133.04 593.556 134.383 593.556 136.04C593.556 137.697 594.899 139.04 596.556 139.04Z" fill="#6039CF" fill-opacity="0.6"/>
<path d="M663 62.0801C664.657 62.0801 666 60.7369 666 59.0801C666 57.4232 664.657 56.0801 663 56.0801C661.343 56.0801 660 57.4232 660 59.0801C660 60.7369 661.343 62.0801 663 62.0801Z" fill="#6039CF" fill-opacity="0.6"/>
<path d="M65 152.52L131.444 46.76L197.889 49.16L264.333 58.44L330.778 123.72L397.222 131.08L463.667 71.72L530.111 19.4L596.556 100.84L663 141.64V165H596.556H530.111H463.667H397.222H330.778H264.333H197.889H131.444H65V152.52Z" fill="#FFC005" fill-opacity="0.6"/>
<path d="M65 155.52C66.6569 155.52 68 154.177 68 152.52C68 150.863 66.6569 149.52 65 149.52C63.3431 149.52 62 150.863 62 152.52C62 154.177 63.3431 155.52 65 155.52Z" fill="#FFC005" fill-opacity="0.6"/>
<path d="M131.444 49.76C133.101 49.76 134.444 48.4169 134.444 46.76C134.444 45.1032 133.101 43.76 131.444 43.76C129.787 43.76 128.444 45.1032 128.444 46.76C128.444 48.4169 129.787 49.76 131.444 49.76Z" fill="#FFC005" fill-opacity="0.6"/>
<path d="M197.889 52.16C199.546 52.16 200.889 50.8169 200.889 49.16C200.889 47.5032 199.546 46.16 197.889 46.16C196.232 46.16 194.889 47.5032 194.889 49.16C194.889 50.8169 196.232 52.16 197.889 52.16Z" fill="#FFC005" fill-opacity="0.6"/>
<path d="M264.333 61.4401C265.99 61.4401 267.333 60.0969 267.333 58.4401C267.333 56.7832 265.99 55.4401 264.333 55.4401C262.676 55.4401 261.333 56.7832 261.333 58.4401C261.333 60.0969 262.676 61.4401 264.333 61.4401Z" fill="#FFC005" fill-opacity="0.6"/>
<path d="M330.777 126.72C332.434 126.72 333.777 125.377 333.777 123.72C333.777 122.063 332.434 120.72 330.777 120.72C329.12 120.72 327.777 122.063 327.777 123.72C327.777 125.377 329.12 126.72 330.777 126.72Z" fill="#FFC005" fill-opacity="0.6"/>
<path d="M397.223 134.08C398.88 134.08 400.223 132.737 400.223 131.08C400.223 129.423 398.88 128.08 397.223 128.08C395.566 128.08 394.223 129.423 394.223 131.08C394.223 132.737 395.566 134.08 397.223 134.08Z" fill="#FFC005" fill-opacity="0.6"/>
<path d="M463.667 74.7198C465.324 74.7198 466.667 73.3767 466.667 71.7198C466.667 70.063 465.324 68.7198 463.667 68.7198C462.01 68.7198 460.667 70.063 460.667 71.7198C460.667 73.3767 462.01 74.7198 463.667 74.7198Z" fill="#FFC005" fill-opacity="0.6"/>
<path d="M530.111 22.4C531.768 22.4 533.111 21.0569 533.111 19.4C533.111 17.7432 531.768 16.4 530.111 16.4C528.454 16.4 527.111 17.7432 527.111 19.4C527.111 21.0569 528.454 22.4 530.111 22.4Z" fill="#FFC005" fill-opacity="0.6"/>
<path d="M596.556 103.84C598.213 103.84 599.556 102.497 599.556 100.84C599.556 99.1831 598.213 97.84 596.556 97.84C594.899 97.84 593.556 99.1831 593.556 100.84C593.556 102.497 594.899 103.84 596.556 103.84Z" fill="#FFC005" fill-opacity="0.6"/>
<path d="M663 144.64C664.657 144.64 666 143.297 666 141.64C666 139.983 664.657 138.64 663 138.64C661.343 138.64 660 139.983 660 141.64C660 143.297 661.343 144.64 663 144.64Z" fill="#FFC005" fill-opacity="0.6"/>
</svg>
