<svg width="15" height="15" viewBox="0 0 15 15" fill="none" xmlns="http://www.w3.org/2000/svg">
<path d="M7.59375 12.0938C7.3375 12.0938 7.125 11.8813 7.125 11.625V10.3125C7.125 10.0562 7.3375 9.84375 7.59375 9.84375C7.85 9.84375 8.0625 10.0562 8.0625 10.3125V11.625C8.0625 11.8813 7.85 12.0938 7.59375 12.0938Z" fill="#6039CF"/>
<path d="M11.1875 14.2188H4V13.125C4 12.175 4.76875 11.4062 5.71875 11.4062H9.46875C10.4187 11.4062 11.1875 12.175 11.1875 13.125V14.2188ZM4.9375 13.2812H10.25V13.125C10.25 12.6938 9.9 12.3438 9.46875 12.3438H5.71875C5.2875 12.3438 4.9375 12.6938 4.9375 13.125V13.2812Z" fill="#6039CF"/>
<path d="M11.3438 14.2188H3.84375C3.5875 14.2188 3.375 14.0063 3.375 13.75C3.375 13.4938 3.5875 13.2812 3.84375 13.2812H11.3438C11.6 13.2812 11.8125 13.4938 11.8125 13.75C11.8125 14.0063 11.6 14.2188 11.3438 14.2188Z" fill="#6039CF"/>
<path d="M11.5187 7.77497C11.3874 7.77497 11.2562 7.71873 11.1624 7.61248C11.0437 7.47498 11.0124 7.28123 11.0874 7.11873C11.2999 6.63123 11.4062 6.11248 11.4062 5.56873V3.69373C11.4062 3.47498 11.3687 3.26248 11.2937 3.03748C11.2874 3.01873 11.2812 2.99373 11.2749 2.96873C11.2562 2.87498 11.2499 2.78123 11.2499 2.69373C11.2499 2.43748 11.4624 2.22498 11.7187 2.22498H12.0937C13.2124 2.22498 14.1249 3.16248 14.1249 4.31873C14.1249 5.27498 13.7312 6.21873 13.0499 6.89998C13.0374 6.91248 12.9999 6.94373 12.9937 6.94998C12.6249 7.25623 12.2062 7.59998 11.6437 7.75623C11.5999 7.76873 11.5624 7.77497 11.5187 7.77497ZM12.2999 3.18123C12.3312 3.34998 12.3437 3.52498 12.3437 3.69373V5.56873C12.3437 5.82498 12.3249 6.06873 12.2874 6.31873C12.3249 6.28748 12.3562 6.26248 12.3937 6.23123C12.8937 5.73123 13.1874 5.03123 13.1874 4.31873C13.1874 3.75623 12.8062 3.28123 12.2999 3.18123Z" fill="#6039CF"/>
<path d="M3.4875 7.75C3.4375 7.75 3.39375 7.74375 3.34375 7.725C2.83125 7.5625 2.35 7.2625 1.95 6.8625C1.23125 6.06875 0.875 5.2 0.875 4.28125C0.875 3.14375 1.76875 2.25 2.90625 2.25H3.3125C3.46875 2.25 3.61875 2.33125 3.70625 2.4625C3.79375 2.59375 3.80625 2.7625 3.74375 2.90625C3.64375 3.13125 3.59375 3.3875 3.59375 3.65625V5.53125C3.59375 6.06875 3.7 6.59375 3.91875 7.09375C3.99375 7.2625 3.95625 7.45625 3.8375 7.59375C3.74375 7.69375 3.61875 7.75 3.4875 7.75ZM2.6875 3.20625C2.18125 3.30625 1.8125 3.74375 1.8125 4.28125C1.8125 4.9625 2.0875 5.61875 2.63125 6.21875C2.65625 6.25 2.6875 6.275 2.71875 6.3C2.675 6.04375 2.65625 5.7875 2.65625 5.53125V3.65625C2.65625 3.50625 2.66875 3.35625 2.6875 3.20625Z" fill="#6039CF"/>
<path d="M7.5 10.4688C4.83125 10.4688 2.65625 8.29375 2.65625 5.625V3.75C2.65625 2.1125 3.9875 0.78125 5.625 0.78125H9.375C11.0125 0.78125 12.3438 2.1125 12.3438 3.75V5.625C12.3438 8.29375 10.1687 10.4688 7.5 10.4688ZM5.625 1.71875C4.50625 1.71875 3.59375 2.63125 3.59375 3.75V5.625C3.59375 7.78125 5.34375 9.53125 7.5 9.53125C9.65625 9.53125 11.4062 7.78125 11.4062 5.625V3.75C11.4062 2.63125 10.4938 1.71875 9.375 1.71875H5.625Z" fill="#6039CF"/>
</svg>
