<svg width="24" height="24" viewBox="0 0 24 24" fill="none" xmlns="http://www.w3.org/2000/svg">
<path d="M20.0016 4.89862C18.6294 4.28987 17.1682 3.8295 15.6443 3.54735C15.4861 3.84754 15.3252 4.18547 15.2041 4.4661L15.0516 4.81934L14.6711 4.76248C12.9012 4.49804 11.1018 4.49804 9.33188 4.76248L8.95209 4.81923L8.79928 4.46694C8.66325 4.1533 8.51373 3.84574 8.35117 3.5451C6.82724 3.8273 5.36525 4.28796 3.99158 4.89795C1.04825 9.26994 0.215699 13.5198 0.579486 17.7236C2.22957 18.9004 4.05261 19.813 5.98303 20.4289C6.26659 20.0314 6.52807 19.6186 6.76629 19.1925C6.25424 18.9787 5.75551 18.734 5.27288 18.4596L5.27212 18.4592C5.18946 18.412 5.1198 18.345 5.0694 18.2643C5.019 18.1836 4.98943 18.0916 4.98335 17.9966C4.97727 17.9016 4.99487 17.8065 5.03456 17.72C5.07426 17.6335 5.13481 17.5582 5.21078 17.5009L5.21505 17.4977L5.21507 17.4977C5.3357 17.4086 5.45586 17.3161 5.56967 17.2241L5.56985 17.224C5.65265 17.1571 5.7524 17.1145 5.85801 17.101C5.96339 17.0875 6.07047 17.1034 6.16736 17.1471M20.0016 4.89862L5.96199 17.603M20.0016 4.89862C22.5735 8.65841 23.8497 12.8764 23.4173 17.7224C21.7659 18.9011 19.9405 19.8143 18.0074 20.4289L20.0016 4.89862ZM6.16736 17.1471C6.16752 17.1472 6.16769 17.1472 6.16785 17.1473L5.96199 17.603M6.16736 17.1471C6.1672 17.147 6.16703 17.1469 6.16687 17.1469L5.96199 17.603M6.16736 17.1471C9.96389 18.8523 14.0658 18.8516 17.8138 17.1489M5.96199 17.603C9.88899 19.367 14.142 19.367 18.023 17.603M17.8138 17.1489C17.8117 17.1498 17.8097 17.1508 17.8076 17.1517L18.023 17.603M17.8138 17.1489C17.8145 17.1485 17.8153 17.1481 17.8161 17.1478L18.023 17.603M17.8138 17.1489L18.023 17.603M17.8408 20.9233L17.779 20.969L17.8406 20.924L17.841 20.9238M17.8408 20.9233L17.8408 20.9234L17.841 20.9238M17.8408 20.9233L17.7189 20.5182C17.7191 20.5181 17.7194 20.518 17.7196 20.518L17.8409 20.9232L17.8408 20.9233ZM17.841 20.9238L17.863 20.997L17.8411 20.9237L17.841 20.9238ZM5.85243 17.6384C5.82393 17.6225 5.79549 17.6064 5.76711 17.5903L5.64981 17.7966C5.65012 17.7964 5.65043 17.7962 5.65074 17.7959L5.76786 17.5907C5.79507 17.6063 5.82037 17.6247 5.84336 17.6456C5.84639 17.6432 5.84941 17.6408 5.85243 17.6384ZM5.8132 18.2991L5.66954 18.1087C5.66758 18.1076 5.66563 18.1066 5.66367 18.1055L5.80892 18.3023C5.83968 18.2796 5.87046 18.2566 5.90119 18.2335C5.89681 18.2312 5.89244 18.2289 5.88806 18.2266C5.86626 18.2536 5.84114 18.278 5.8132 18.2991ZM18.0869 18.2353C18.1173 18.2582 18.1479 18.2809 18.1786 18.3034C18.1491 18.2818 18.1227 18.2566 18.0998 18.2285C18.0955 18.2308 18.0912 18.233 18.0869 18.2353ZM18.2127 17.5951L18.3295 17.7918C18.3321 17.7938 18.3347 17.7958 18.3373 17.7978L18.2187 17.5916C18.1909 17.6075 18.1632 17.6234 18.1353 17.6391C18.1382 17.6414 18.141 17.6437 18.1439 17.646C18.1649 17.6268 18.188 17.6097 18.2127 17.5951ZM18.7694 17.4966C18.7694 17.4966 18.7694 17.4965 18.7693 17.4965L18.474 17.9L18.7694 17.4966ZM17.2245 19.1923C17.1464 19.0545 17.0705 18.9154 16.9969 18.7749L16.6209 18.9719L16.6205 18.9721L16.6203 18.9722L16.6201 18.9723L16.6198 18.9725L16.5542 19.0069L16.6206 18.9725L16.621 18.9722L16.998 18.777C17.0258 18.8307 17.0418 18.8896 17.045 18.95C17.0482 19.0103 17.0385 19.0707 17.0165 19.1271C16.9945 19.1834 16.9607 19.2343 16.9175 19.2766C16.875 19.318 16.8243 19.3501 16.7687 19.3708C16.9222 19.3139 17.0741 19.2544 17.2245 19.1923ZM6.98964 18.7758L6.98823 18.7785C6.9887 18.7776 6.98917 18.7767 6.98964 18.7758ZM6.27012 20.5181L6.26768 20.5174L6.27012 20.5181ZM5.36299 12.898C5.36299 14.4387 6.51758 15.778 8.01999 15.778C9.54279 15.778 10.6752 14.4389 10.677 12.9016C10.6976 11.3633 9.54812 10.018 8.01999 10.018C6.496 10.018 5.36299 11.3591 5.36299 12.898ZM13.338 12.898C13.338 14.4385 14.4914 15.778 15.995 15.778C17.5292 15.778 18.6502 14.4373 18.652 12.9016C18.6726 11.3633 17.5231 10.018 15.995 10.018C14.4699 10.018 13.338 11.3593 13.338 12.898Z" stroke="#6039CF"/>
</svg>
