<svg width="25" height="24" viewBox="0 0 25 24" fill="none" xmlns="http://www.w3.org/2000/svg">
<path d="M19.9472 11.25H15.9072C13.8972 11.25 12.9272 10.36 12.9272 8.52V3.98C12.9272 2.14 13.9072 1.25 15.9072 1.25H19.9472C21.9572 1.25 22.9272 2.14 22.9272 3.98V8.51C22.9272 10.36 21.9472 11.25 19.9472 11.25ZM15.9072 2.75C14.5672 2.75 14.4272 3.13 14.4272 3.98V8.51C14.4272 9.37 14.5672 9.74 15.9072 9.74H19.9472C21.2872 9.74 21.4272 9.36 21.4272 8.51V3.98C21.4272 3.12 21.2872 2.75 19.9472 2.75H15.9072Z" fill="#8061D9"/>
<path d="M19.9472 22.75H15.9072C13.8972 22.75 12.9272 21.77 12.9272 19.77V15.73C12.9272 13.72 13.9072 12.75 15.9072 12.75H19.9472C21.9572 12.75 22.9272 13.73 22.9272 15.73V19.77C22.9272 21.77 21.9472 22.75 19.9472 22.75ZM15.9072 14.25C14.7272 14.25 14.4272 14.55 14.4272 15.73V19.77C14.4272 20.95 14.7272 21.25 15.9072 21.25H19.9472C21.1272 21.25 21.4272 20.95 21.4272 19.77V15.73C21.4272 14.55 21.1272 14.25 19.9472 14.25H15.9072Z" fill="#8061D9"/>
<path d="M8.44725 11.25H4.40725C2.39725 11.25 1.42725 10.36 1.42725 8.52V3.98C1.42725 2.14 2.40725 1.25 4.40725 1.25H8.44725C10.4572 1.25 11.4272 2.14 11.4272 3.98V8.51C11.4272 10.36 10.4472 11.25 8.44725 11.25ZM4.40725 2.75C3.06725 2.75 2.92725 3.13 2.92725 3.98V8.51C2.92725 9.37 3.06725 9.74 4.40725 9.74H8.44725C9.78725 9.74 9.92725 9.36 9.92725 8.51V3.98C9.92725 3.12 9.78725 2.75 8.44725 2.75H4.40725Z" fill="#8061D9"/>
<path d="M8.44725 22.75H4.40725C2.39725 22.75 1.42725 21.77 1.42725 19.77V15.73C1.42725 13.72 2.40725 12.75 4.40725 12.75H8.44725C10.4572 12.75 11.4272 13.73 11.4272 15.73V19.77C11.4272 21.77 10.4472 22.75 8.44725 22.75ZM4.40725 14.25C3.22725 14.25 2.92725 14.55 2.92725 15.73V19.77C2.92725 20.95 3.22725 21.25 4.40725 21.25H8.44725C9.62725 21.25 9.92725 20.95 9.92725 19.77V15.73C9.92725 14.55 9.62725 14.25 8.44725 14.25H4.40725Z" fill="#8061D9"/>
</svg>
