<svg width="24" height="24" viewBox="0 0 24 24" fill="none" xmlns="http://www.w3.org/2000/svg">
<path d="M17.0037 8.61827C16.1065 8.61816 15.3812 7.89278 15.3812 6.99562C15.3812 6.09838 16.1067 5.37296 17.0039 5.37296C17.9009 5.37296 18.6262 6.09804 18.6266 6.99499C18.6266 6.9952 18.6266 6.99541 18.6266 6.99562H18.1266L17.0037 8.61827ZM17.0037 8.61827C17.0035 8.61827 17.0034 8.61827 17.0033 8.61827L17.0039 8.11827V8.61827C17.0038 8.61827 17.0037 8.61827 17.0037 8.61827ZM20.8099 8.15653L20.8099 8.15653L20.8102 8.16042C20.8731 9.27885 20.8719 10.3901 20.8706 11.5251C20.8705 11.6828 20.8703 11.8409 20.8703 11.9995C20.8703 12.1774 20.8706 12.3546 20.8708 12.5312C20.8724 13.6468 20.874 14.7386 20.8102 15.8377L20.8099 15.8425C20.7403 17.2799 20.42 18.4654 19.4441 19.4413C18.4705 20.4149 17.2825 20.7375 15.8453 20.8071L15.8414 20.8073C14.723 20.8703 13.6117 20.8691 12.4767 20.8678C12.3191 20.8677 12.161 20.8675 12.0023 20.8675C11.844 20.8675 11.6862 20.8677 11.5288 20.8678C10.3954 20.8691 9.28375 20.8703 8.16318 20.8073L8.15934 20.8071C6.72197 20.7375 5.53644 20.4172 4.56057 19.4413C3.58695 18.4677 3.26433 17.2797 3.19472 15.8425L3.19473 15.8425L3.19451 15.8386C3.13159 14.7201 3.13279 13.607 3.13402 12.4731C3.13419 12.3157 3.13436 12.1578 3.13436 11.9995C3.13436 11.8412 3.13419 11.6834 3.13402 11.5259C3.13279 10.3925 3.13159 9.28092 3.19451 8.16037L3.19453 8.16037L3.19472 8.15653C3.26434 6.71916 3.58471 5.53363 4.56057 4.55777C5.5342 3.58414 6.72219 3.26152 8.15934 3.19191L8.15934 3.19192L8.16323 3.1917C9.28165 3.12878 10.3929 3.12998 11.5279 3.13121C11.6856 3.13139 11.8437 3.13156 12.0023 3.13156C12.1607 3.13156 12.3185 3.13139 12.4759 3.13121C13.6094 3.12998 14.7209 3.12878 15.8415 3.19171L15.8415 3.19172L15.8453 3.19191C17.2827 3.26153 18.4682 3.5819 19.4441 4.55777C20.4177 5.53139 20.7403 6.71938 20.8099 8.15653ZM9.37577 11.9995C9.37577 10.5554 10.5558 9.37531 12 9.37531C13.4442 9.37531 14.6242 10.5554 14.6242 11.9995C14.6242 13.4437 13.4442 14.6237 12 14.6237C10.5558 14.6237 9.37577 13.4437 9.37577 11.9995ZM19.7976 19.7948C20.8969 18.6956 21.2367 17.3667 21.3094 15.8667L2.6953 8.13234C2.63151 9.26821 2.63276 10.3951 2.63402 11.5271C2.63419 11.6845 2.63436 11.8419 2.63436 11.9995C2.63436 12.1571 2.63419 12.3146 2.63402 12.4719C2.63276 13.6045 2.63151 14.7329 2.6953 15.8667C2.76796 17.3667 3.11015 18.698 4.20702 19.7948C5.30624 20.8941 6.63515 21.2339 8.13515 21.3066C9.27104 21.3703 10.3979 21.3691 11.53 21.3678C11.6873 21.3677 11.8448 21.3675 12.0023 21.3675C12.1602 21.3675 12.3179 21.3677 12.4755 21.3678C13.6091 21.3691 14.7357 21.3703 15.8695 21.3066C17.3695 21.2339 18.7008 20.8917 19.7976 19.7948ZM6.69296 11.9995C6.69296 14.9358 9.06369 17.3066 12 17.3066C14.9363 17.3066 17.307 14.9358 17.307 11.9995C17.307 9.06323 14.9363 6.69249 12 6.69249C9.06369 6.69249 6.69296 9.06323 6.69296 11.9995Z" stroke="#6039CF"/>
</svg>
