<svg width="24" height="24" viewBox="0 0 24 24" fill="none" xmlns="http://www.w3.org/2000/svg">
<path d="M7.23016 8.18009C7.23016 8.16009 7.23016 8.13009 7.23016 8.11009C7.32016 7.14009 7.77014 6.2301 8.49014 5.5501C10.1701 3.9501 12.9001 3.9501 14.5801 5.5501L16.8802 7.7401C17.7002 8.5201 18.1602 9.5701 18.1602 10.6901C18.1602 11.8101 17.7102 12.8601 16.8802 13.6401C15.2002 15.2401 12.4702 15.2401 10.7902 13.6401L9.64017 12.5501C9.34017 12.2601 9.33014 11.7901 9.61014 11.4901C9.90014 11.1901 10.3702 11.1801 10.6702 11.4601L11.8202 12.5501C12.9302 13.6101 14.7401 13.6101 15.8401 12.5501C16.8801 11.5601 16.8801 9.8201 15.8401 8.8201L13.5402 6.6301C12.4302 5.5701 10.6201 5.5701 9.52014 6.6301C9.06014 7.0601 8.78015 7.64009 8.72015 8.25009C8.68015 8.66009 8.31015 8.96009 7.90015 8.92009C7.52015 8.89009 7.23016 8.56009 7.23016 8.18009Z" fill="#F5F5F5"/>
<path d="M5.8401 13.3102C5.8401 12.1902 6.2901 11.1402 7.1201 10.3602C8.8001 8.76016 11.5301 8.76016 13.2101 10.3602L14.3601 11.4502C14.6601 11.7402 14.6701 12.2102 14.3901 12.5102C14.1001 12.8102 13.6301 12.8201 13.3301 12.5401L12.1801 11.4502C11.0701 10.3902 9.26011 10.3902 8.16011 11.4502C7.12011 12.4402 7.11011 14.1801 8.16011 15.1801L10.4601 17.3702C11.5701 18.4302 13.3801 18.4302 14.4801 17.3702C14.9401 16.9402 15.2201 16.3602 15.2801 15.7502C15.3201 15.3402 15.6901 15.0402 16.1001 15.0802C16.5101 15.1202 16.8201 15.4801 16.7701 15.9001C16.6701 16.8701 16.2301 17.7802 15.5101 18.4602C13.8301 20.0602 11.1001 20.0602 9.42012 18.4602L7.1201 16.2702C6.2901 15.4802 5.8401 14.4302 5.8401 13.3102Z" fill="#F5F5F5"/>
<path d="M1.25 15L1.25 9C1.25 3.57 3.57 1.25 9 1.25L15 1.25C20.43 1.25 22.75 3.57 22.75 9L22.75 15C22.75 20.43 20.43 22.75 15 22.75L9 22.75C3.57 22.75 1.25 20.43 1.25 15ZM21.25 9C21.25 4.39 19.61 2.75 15 2.75L9 2.75C4.39 2.75 2.75 4.39 2.75 9L2.75 15C2.75 19.61 4.39 21.25 9 21.25L15 21.25C19.61 21.25 21.25 19.61 21.25 15L21.25 9Z" fill="#F5F5F5"/>
</svg>
