<svg width="227" height="35" viewBox="0 0 227 35" fill="none" xmlns="http://www.w3.org/2000/svg">
<g clip-path="url(#clip0_799_3240)">
<path d="M6.46134 24.6778C6.46134 26.4575 6.46134 28.1185 6.46134 29.8982C6.46134 30.4914 6.33942 30.7287 5.72986 30.6101C4.51075 30.6101 3.41354 30.6101 2.19442 30.6101C0.975299 30.6101 0.121916 29.8982 0.121916 28.7117C0.121916 25.3897 -0.121908 21.949 0.121916 18.627C0.853388 9.37276 7.55854 2.25412 15.8486 0.118524C16.2143 -0.000120001 16.58 -0.000120001 16.9458 0.118524C25.2358 2.61005 30.3561 8.06768 32.3067 16.2541C32.5505 17.5592 32.6724 18.8643 32.6724 20.1694C32.6724 22.8982 32.6724 25.627 32.6724 28.3558C32.6724 29.7795 31.9409 30.7287 30.2342 30.6101C29.2589 30.4914 28.1617 30.6101 27.1864 30.6101C26.5768 30.6101 26.333 30.3728 26.333 29.7795C26.333 26.6948 26.333 23.6101 26.333 20.4067C26.333 16.966 25.2358 13.7626 22.9194 11.0338C21.4565 9.13547 19.5059 7.5931 17.0677 6.76259C16.7019 6.64395 16.0924 6.64395 15.7266 6.76259C10.4844 9.13547 7.31472 13.0507 6.58325 18.627C6.33942 20.6439 6.58325 22.6609 6.58325 24.6778H6.46134Z" fill="#6039CF"/>
<path d="M222.733 12.1018H207.86V17.3221C208.104 17.3221 208.469 17.3221 208.713 17.3221C213.224 17.3221 217.735 17.3221 222.245 17.3221C223.708 17.3221 225.049 17.7967 225.903 18.8645C226.39 19.5763 226.878 20.5255 227 21.356C227.122 23.2543 227.122 25.034 226.878 26.9323C226.634 29.1865 224.806 30.6102 222.489 30.6102C217.735 30.6102 212.858 30.6102 208.104 30.6102C205.665 30.6102 203.715 28.7119 203.715 26.2204C203.715 24.3221 203.471 24.678 205.3 24.678C205.909 24.678 206.519 24.678 207.25 24.678C207.738 24.678 207.982 24.9153 207.982 25.3899C207.982 25.7458 207.982 26.2204 207.982 26.695H222.855V21.356H221.88C217.491 21.356 213.224 21.356 208.835 21.356C205.544 21.356 203.715 19.5763 203.837 16.373C203.837 14.8306 203.837 13.1696 203.959 11.6272C204.202 9.4916 206.031 8.06787 208.226 8.06787C212.98 8.06787 217.735 7.94922 222.489 8.06787C225.903 8.18651 227.366 10.5594 227.122 13.6441C227.122 13.7628 226.756 14.0001 226.634 14.0001C225.537 14.0001 224.562 14.0001 223.465 14.0001C222.977 14.0001 222.855 13.7628 222.855 13.4069C222.733 13.0509 222.733 12.5763 222.733 12.1018Z" fill="#6039CF"/>
<path d="M90.3367 23.1357C91.4339 24.4407 92.5312 25.6272 93.6284 26.9323C94.3598 27.7628 95.0913 28.5933 95.8228 29.5424C96.0666 29.7797 96.0666 30.2543 96.0666 30.4916C96.0666 30.6102 95.5789 30.7289 95.2132 30.7289C94.2379 30.7289 93.1407 30.7289 92.1654 30.7289C91.7997 30.7289 91.312 30.4916 91.0682 30.2543C89.1176 28.1187 87.167 25.8645 85.3383 23.6102C84.8507 23.017 84.3631 22.8984 83.6316 22.8984C81.3153 22.8984 79.1208 22.8984 76.6826 22.8984C76.6826 23.2543 76.6826 23.4916 76.6826 23.7289C76.6826 25.7458 76.6826 27.8814 76.6826 29.8984C76.6826 30.4916 76.5607 30.7289 75.9511 30.6102C75.0977 30.6102 74.1225 30.6102 73.2691 30.6102C72.7814 30.6102 72.5376 30.4916 72.5376 30.017C72.5376 22.8984 72.5376 15.7797 72.5376 8.54244C72.5376 8.06786 72.6595 7.94922 73.1472 7.94922C79.2428 7.94922 85.4603 7.94922 91.5559 7.94922C94.116 7.94922 96.0666 9.96617 96.0666 12.4577C96.0666 14.356 96.0666 16.2543 96.0666 18.1526C96.0666 20.8814 94.116 22.7797 91.312 22.7797C90.9463 22.7797 90.7025 22.7797 90.3367 22.7797C90.3367 23.017 90.3367 23.017 90.3367 23.1357ZM91.7997 12.1018H76.6826V18.8645H91.6778V12.1018H91.7997Z" fill="#6039CF"/>
<path d="M142.271 23.1357C143.368 24.4408 144.466 25.6272 145.563 26.9323C146.294 27.7628 147.026 28.5933 147.757 29.5424C148.001 29.7797 147.879 30.2543 148.001 30.6102C147.757 30.7289 147.392 30.7289 147.148 30.7289C146.172 30.7289 145.075 30.7289 144.1 30.7289C143.734 30.7289 143.368 30.4916 143.125 30.2543C141.174 28.1187 139.345 25.8645 137.395 23.7289C136.907 23.1357 136.419 22.8984 135.566 22.8984C133.25 22.8984 131.055 22.8984 128.739 22.8984C128.739 23.2543 128.739 23.4916 128.739 23.7289C128.739 25.7458 128.739 27.8814 128.739 29.8984C128.739 30.4916 128.495 30.7289 127.886 30.7289C127.032 30.7289 126.301 30.7289 125.447 30.7289C124.716 30.7289 124.594 30.4916 124.594 29.8984C124.594 23.8475 124.594 17.7967 124.594 11.7458C124.594 10.7967 124.594 9.72889 124.594 8.77974C124.594 8.30516 124.716 8.06787 125.325 8.06787C131.421 8.06787 137.517 8.06787 143.612 8.06787C146.172 8.06787 148.123 10.0848 148.123 12.5763C148.123 14.4747 148.123 16.373 148.123 18.2713C148.123 20.8814 146.05 22.7797 143.368 22.8984C143.003 22.8984 142.759 22.8984 142.393 22.8984C142.271 23.017 142.271 23.017 142.271 23.1357ZM128.617 18.8645H143.612V12.1018H128.617V18.8645Z" fill="#6039CF"/>
<path d="M64.6134 23.1357H49.6182C49.6182 23.373 49.6182 23.7289 49.6182 23.9662C49.6182 25.9831 49.6182 28.0001 49.6182 29.8984C49.6182 30.4916 49.4963 30.7289 48.7648 30.7289C47.9114 30.7289 46.9361 30.7289 46.0828 30.7289C45.5951 30.7289 45.4732 30.4916 45.4732 30.1357C45.4732 24.2035 45.4732 18.3899 45.4732 12.4577C45.4732 9.84753 47.5457 8.06787 50.1059 8.06787C54.7385 8.06787 59.4931 8.06787 64.1257 8.06787C66.9297 8.06787 69.0022 9.96618 69.0022 12.695C69.0022 18.3899 69.0022 24.0848 69.0022 29.7797C69.0022 30.4916 68.7584 30.7289 68.0269 30.7289C67.1735 30.6102 66.3201 30.7289 65.4668 30.7289C64.8572 30.7289 64.6134 30.6102 64.6134 29.8984C64.6134 27.8814 64.6134 25.9831 64.6134 23.9662V23.1357ZM64.6134 12.1018H49.6182V18.9831H64.6134V12.1018Z" fill="#6039CF"/>
<path d="M155.925 12.1018V17.4407H156.779C160.802 17.4407 164.825 17.4407 168.848 17.4407C169.579 17.4407 169.823 17.678 169.701 18.2713C169.701 18.9831 169.701 19.8136 169.701 20.5255C169.701 21.2374 169.579 21.356 168.848 21.356C164.825 21.356 160.802 21.356 156.901 21.356H155.925V26.695H156.901C162.021 26.695 167.141 26.695 172.262 26.695C172.993 26.695 173.237 26.9323 173.237 27.6441C173.237 28.356 173.237 29.1865 173.237 29.8984C173.237 30.4916 172.993 30.7289 172.383 30.7289C168.726 30.7289 165.069 30.7289 161.533 30.7289C158.607 30.7289 155.56 30.7289 152.634 30.7289C152.024 30.7289 151.78 30.6102 151.78 29.8984C151.78 22.8984 151.78 15.7797 151.78 8.77973C151.78 8.18651 151.902 7.94922 152.634 7.94922C159.339 7.94922 165.922 7.94922 172.627 7.94922C173.237 7.94922 173.481 8.06786 173.359 8.66108C173.359 9.49159 173.359 10.2035 173.359 11.034C173.359 11.7458 173.237 11.9831 172.383 11.9831C167.263 11.9831 162.265 11.9831 157.144 11.9831H155.925V12.1018Z" fill="#6039CF"/>
<path d="M180.673 26.6948H195.791V25.7457C195.791 20.1694 195.791 14.5931 195.791 9.01687C195.791 8.305 195.912 8.06772 196.644 8.18636C197.497 8.18636 198.351 8.18636 199.204 8.18636C199.936 8.18636 200.057 8.42365 200.057 9.01687C200.057 14.7118 200.057 20.5253 200.057 26.2203C200.057 26.8135 199.936 27.5253 199.692 28.1186C198.96 29.8982 197.375 30.7287 195.425 30.8474C190.67 30.8474 185.794 30.8474 181.039 30.8474C178.479 30.8474 176.528 28.9491 176.528 26.4575C176.528 20.644 176.528 14.7118 176.528 8.89822C176.528 8.42365 176.772 8.18636 177.26 8.18636C178.113 8.18636 178.967 8.18636 179.82 8.18636C180.43 8.18636 180.673 8.42365 180.673 9.01687C180.673 13.644 180.673 18.2711 180.673 22.8982V26.6948Z" fill="#6039CF"/>
<path d="M112.403 12.1018V13.0509C112.403 18.6272 112.403 24.2035 112.403 29.7797C112.403 30.4916 112.281 30.7289 111.427 30.7289C110.574 30.6102 109.843 30.6102 108.989 30.7289C108.136 30.8475 108.014 30.4916 108.014 29.7797C108.014 24.2035 108.014 18.7458 108.014 13.1696V12.1018H107.039C104.479 12.1018 101.918 12.1018 99.3582 12.1018C98.7486 12.1018 98.5048 11.9831 98.5048 11.2713C98.5048 10.4408 98.5048 9.61024 98.5048 8.77974C98.5048 8.30516 98.6267 8.06787 99.2363 8.06787C106.551 8.06787 113.866 8.06787 121.059 8.06787C121.546 8.06787 121.79 8.18652 121.79 8.77974C121.79 9.61024 121.79 10.5594 121.79 11.3899C121.79 11.9831 121.546 12.1018 120.937 12.1018C118.376 12.1018 115.816 12.1018 113.256 12.1018H112.403Z" fill="#6039CF"/>
<path d="M12.0693 30.7287C12.0693 28.3558 14.0199 26.5762 16.4581 26.5762C18.7744 26.5762 20.725 28.5931 20.725 30.8474C20.725 33.1016 18.6525 35.1185 16.3362 35.1185C14.0199 34.9999 12.0693 33.1016 12.0693 30.7287Z" fill="#6039CF"/>
</g>
<defs>
<clipPath id="clip0_799_3240">
<rect width="227" height="35" fill="white"/>
</clipPath>
</defs>
</svg>
