<svg width="24" height="24" viewBox="0 0 24 24" fill="none" xmlns="http://www.w3.org/2000/svg">
<path fill-rule="evenodd" clip-rule="evenodd" d="M12.0605 2H11.9892C8.62006 2 5.53096 4.44456 5.23126 7.68096C5.21127 7.91248 5.19765 8.14906 5.18885 8.40391L5.17654 8.99974L5.1741 9.53395L5.18915 9.47306C5.05011 10.151 4.72966 10.7799 4.26095 11.2938L4.19378 11.3802C3.79245 11.9898 3.56186 12.6955 3.52616 13.4242L3.52532 13.6624C3.50483 14.6208 3.83323 15.5691 4.45104 16.3223C5.28885 17.2069 6.37338 17.7346 7.53738 17.8466C10.5144 18.1699 13.5264 18.1699 16.5117 17.8457C17.6678 17.7393 18.7555 17.2101 19.5582 16.3582C20.1643 15.6331 20.4951 14.763 20.5234 13.862L20.5244 13.4587C20.4912 12.698 20.2592 11.9917 19.853 11.3847L19.7913 11.3055L19.6406 11.1282C19.302 10.7052 19.0547 10.218 18.914 9.69688L18.8694 9.50977L18.8602 9.31353C18.8574 9.22527 18.8561 9.1274 18.8556 9.00516L18.8555 8.33206C18.8532 8.07458 18.8456 7.89148 18.8278 7.68536C18.5179 4.44285 15.4279 2 12.0605 2ZM11.9898 3.39535H12.0611C14.7586 3.39535 17.2194 5.34075 17.4557 7.81327C17.4697 7.97559 17.4759 8.13045 17.4778 8.3605L17.4805 9.26514C17.4835 9.40982 17.4892 9.53013 17.4989 9.66551L17.5118 9.75818L17.5767 10.034C17.769 10.7635 18.1143 11.4441 18.5897 12.0309L18.7276 12.1926L18.7123 12.1672C18.976 12.5613 19.1262 13.0186 19.1472 13.4901L19.1465 13.6536C19.1625 14.3097 18.9449 14.933 18.5334 15.4267C17.9895 16.002 17.2121 16.3802 16.3763 16.4572C13.4777 16.7719 10.5643 16.7719 7.67667 16.4583C6.83181 16.377 6.0538 15.9985 5.47868 15.3931C5.10585 14.9356 4.89067 14.3143 4.90418 13.6774L4.90434 13.4587L4.92181 13.2682C4.96388 12.9495 5.07037 12.6265 5.23543 12.3291L5.31914 12.1906C5.93278 11.5004 6.35391 10.6611 6.53939 9.75667L6.55378 9.61487L6.56031 8.69559L6.57636 8.2292C6.58365 8.08208 6.59297 7.94228 6.60466 7.80678C6.83302 5.34087 9.2915 3.39535 11.9898 3.39535ZM5.31914 12.1906C5.3043 12.2072 5.28935 12.2238 5.27428 12.2404L5.32355 12.1833L5.31914 12.1906ZM14.6326 19.6906C14.336 19.4491 13.9021 19.4967 13.6635 19.7969C13.5601 19.927 13.4404 20.0437 13.3072 20.1442C12.8554 20.4986 12.2915 20.6564 11.731 20.5896C11.1713 20.523 10.6625 20.2381 10.3173 19.7995C10.0801 19.4981 9.64649 19.4484 9.34878 19.6885C9.05106 19.9286 9.002 20.3676 9.23919 20.6689C9.81161 21.3962 10.6504 21.8659 11.5699 21.9754C12.4886 22.0849 13.4137 21.826 14.1413 21.255C14.3573 21.0922 14.5612 20.8935 14.7375 20.6715C14.9761 20.3713 14.9291 19.9321 14.6326 19.6906Z" fill="white"/>
</svg>
