<svg width="25" height="24" viewBox="0 0 25 24" fill="none" xmlns="http://www.w3.org/2000/svg">
<path d="M20.0772 22.75H4.27725C2.35725 22.75 1.42725 21.77 1.42725 19.77V15.73C1.42725 13.72 2.35725 12.75 4.27725 12.75H20.0772C21.9972 12.75 22.9272 13.73 22.9272 15.73V19.77C22.9272 21.77 21.9972 22.75 20.0772 22.75ZM4.27725 14.25C3.26725 14.25 2.92725 14.46 2.92725 15.73V19.77C2.92725 21.04 3.26725 21.25 4.27725 21.25H20.0772C21.0872 21.25 21.4272 21.04 21.4272 19.77V15.73C21.4272 14.46 21.0872 14.25 20.0772 14.25H4.27725Z" fill="#7A7A7A"/>
<path d="M20.0772 11.25H4.27725C2.35725 11.25 1.42725 10.27 1.42725 8.27V4.23C1.42725 2.22 2.35725 1.25 4.27725 1.25H20.0772C21.9972 1.25 22.9272 2.23 22.9272 4.23V8.27C22.9272 10.27 21.9972 11.25 20.0772 11.25ZM4.27725 2.75C3.26725 2.75 2.92725 2.96 2.92725 4.23V8.27C2.92725 9.54 3.26725 9.75 4.27725 9.75H20.0772C21.0872 9.75 21.4272 9.54 21.4272 8.27V4.23C21.4272 2.96 21.0872 2.75 20.0772 2.75H4.27725Z" fill="#7A7A7A"/>
</svg>
