<?xml version="1.0" standalone="no"?>
<!DOCTYPE svg PUBLIC "-//W3C//DTD SVG 20010904//EN"
 "http://www.w3.org/TR/2001/REC-SVG-20010904/DTD/svg10.dtd">
<svg version="1.0" xmlns="http://www.w3.org/2000/svg"
 width="280.000000pt" height="252.000000pt" viewBox="0 0 280.000000 252.000000"
 preserveAspectRatio="xMidYMid meet">
<metadata>
Created by potrace 1.16, written by Peter Selinger 2001-2019
</metadata>
<g transform="translate(0.000000,252.000000) scale(0.100000,-0.100000)"
fill="#000000" stroke="none">
<path d="M536 1591 c-295 -510 -536 -931 -536 -935 0 -3 139 -6 310 -6 171 0
310 -3 310 -7 0 -5 -70 -127 -154 -273 l-154 -265 1081 -3 c594 -1 1082 -1
1084 1 2 2 -67 125 -152 272 -85 147 -155 270 -155 271 0 2 141 5 314 6 l314
3 -537 929 c-295 511 -541 931 -546 933 -6 1 -74 -109 -152 -245 -78 -136
-148 -255 -156 -266 -12 -16 -28 7 -167 248 -84 146 -156 266 -160 266 -5 0
-249 -418 -544 -929z m1229 -271 c192 -333 357 -620 368 -637 l19 -33 -755 0
-755 0 375 651 c300 519 378 648 388 637 7 -7 169 -285 360 -618z"/>
<path d="M1320 1427 c-104 -23 -186 -87 -237 -187 -25 -49 -28 -65 -28 -150 0
-81 4 -103 26 -150 33 -70 95 -132 167 -167 50 -24 69 -28 147 -28 82 0 97 3
157 33 73 36 124 87 160 161 20 39 23 62 23 151 0 94 -3 110 -27 155 -74 140
-235 215 -388 182z"/>
</g>
</svg>
