<svg width="24" height="24" viewBox="0 0 24 24" fill="none" xmlns="http://www.w3.org/2000/svg">
<path d="M20.8449 4.18358L20.8582 4.17847L20.8711 4.17261C21.1347 4.05337 21.3003 4.11682 21.3778 4.1917C21.4619 4.27306 21.591 4.51224 21.4619 5.03007L21.4597 5.03864L21.4579 5.04728L18.4389 19.2753L18.4385 19.277C18.3469 19.7163 18.199 19.8381 18.1276 19.8703C18.0551 19.9029 17.8772 19.9267 17.529 19.7412L12.9581 16.3649L12.6167 16.1127L12.3124 16.4086L10.1028 18.5573C10.1026 18.5575 10.1024 18.5576 10.1023 18.5578C10.096 18.5639 10.0898 18.5698 10.0838 18.5756L10.3284 14.9195L18.7079 7.35699C18.7085 7.35651 18.709 7.35603 18.7096 7.35555C18.8313 7.24715 19.0029 7.0558 19.013 6.78922C19.0187 6.63762 18.969 6.49129 18.8714 6.37508C18.7805 6.26676 18.6683 6.20777 18.5759 6.17603C18.3968 6.11455 18.2066 6.12423 18.0487 6.15695C17.8812 6.19165 17.7063 6.261 17.5371 6.36391L17.5371 6.36386L17.5302 6.3682L7.19348 12.89L2.8619 11.5387L2.8619 11.5387L2.85967 11.5381C2.67853 11.4825 2.57505 11.422 2.52356 11.38C2.53652 11.3643 2.55552 11.3442 2.58311 11.3198C2.68022 11.2339 2.85016 11.1273 3.11825 11.0193L20.8449 4.18358Z" stroke="#6039CF"/>
</svg>
