<svg id="logo" xmlns="http://www.w3.org/2000/svg" xmlns:xlink="http://www.w3.org/1999/xlink" width="200" height="45.652" viewBox="0 0 200 45.652">
  <defs>
    <clipPath id="clip-path">
      <rect id="Rectangle_14325" data-name="Rectangle 14325" width="200" height="45.652" fill="none"/>
    </clipPath>
  </defs>
  <g id="Group_47782" data-name="Group 47782" clip-path="">
    <path id="Path_13024" data-name="Path 13024" d="M36.653.189H12.218L0,21.351,12.218,42.513H36.653L48.871,21.351Zm-22.8,39.486L5.7,25.548a21.168,21.168,0,0,1,2.093-.337c.487-.052.972-.087,1.459-.1a21.389,21.389,0,0,1,18.039,8.718H29.3a22.919,22.919,0,0,0-11.886-9.177,23.12,23.12,0,0,0-6.091-1.18c-.468-.026-.937-.038-1.4-.033h0l-.993-1.629-.262-.456.284-.49L11.872,15.8l4.679-8.105h9.292A19.406,19.406,0,0,0,26.91,6.038H15.6L9.9,15.907,7.117,20.726l-.362.624.35.607,1,1.558c-.437.038-.873.087-1.308.151-.659.1-1.315.224-1.968.377L3.276,21.351,13.856,3.027H30.083q-.316.929-.716,1.829c-.265.6-.56,1.187-.884,1.764a21.424,21.424,0,0,1-1.454,2.256,21.2,21.2,0,0,1-11.4,7.876,21.8,21.8,0,0,1-3.327.662L11.29,19.17a23.311,23.311,0,0,0,4.791-.825,22.873,22.873,0,0,0,12.964-9.47c.255-.385.5-.778.728-1.182H32.32l2.741,4.745,5.145,8.912-5.147,8.917v0c.2.385.4.766.629,1.144.1.175.21.35.319.52l6.11-10.583-6.11-10.581L33.278,6.042l0,0H30.646c.184-.39.359-.783.52-1.182.247-.6.463-1.211.657-1.829h3.192l10.58,18.324-8.481,14.69q-.625-.662-1.193-1.376a21.184,21.184,0,0,1-1.657-2.407c-.087-.149-.175-.3-.258-.449l0,0a21.383,21.383,0,0,1-.567-19.815l-.984-1.7a23.059,23.059,0,0,0-.017,22.1c.13.236.265.475.4.709.083.142.168.281.255.421h0l-1.013,1.485H16.551l-4.724-8.181a19.294,19.294,0,0,0-1.956-.078L15.6,36.663h17.68l0,0,.937-1.5q.376.5.78.985c.4.48.821.94,1.258,1.385l-1.238,2.143Z" transform="translate(0 -0.14)" fill="#006838"/>
  </g>
</svg>
