<svg width="26" height="24" viewBox="0 0 26 24" fill="none" xmlns="http://www.w3.org/2000/svg">
<path d="M22.8736 6.72998C22.8528 6.72998 22.8215 6.72998 22.7903 6.72998C17.2774 6.19998 11.775 5.99998 6.3247 6.52998L4.19877 6.72998C3.76108 6.76998 3.37549 6.46998 3.33381 6.04998C3.29212 5.62998 3.60476 5.26998 4.03203 5.22998L6.15796 5.02998C11.7021 4.48998 17.3191 4.69998 22.9466 5.22998C23.3739 5.26998 23.6865 5.63998 23.6448 6.04998C23.6136 6.43998 23.2696 6.72998 22.8736 6.72998Z" fill="#7A7A7A"/>
<path d="M9.84731 5.72C9.80562 5.72 9.76394 5.72 9.71183 5.71C9.29498 5.64 9.00319 5.25 9.07614 4.85L9.3054 3.54C9.47214 2.58 9.70141 1.25 12.1296 1.25H14.8599C17.2985 1.25 17.5278 2.63 17.6841 3.55L17.9134 4.85C17.9863 5.26 17.6945 5.65 17.2777 5.71C16.8504 5.78 16.444 5.5 16.3814 5.1L16.1522 3.8C16.0063 2.93 15.975 2.76 14.8703 2.76H12.14C11.0353 2.76 11.0145 2.9 10.8582 3.79L10.6185 5.09C10.556 5.46 10.2225 5.72 9.84731 5.72Z" fill="#7A7A7A"/>
<path d="M16.8402 22.75H10.1497C6.5127 22.75 6.3668 20.82 6.25217 19.26L5.57479 9.18995C5.54352 8.77995 5.877 8.41995 6.30427 8.38995C6.74196 8.36995 7.10671 8.67995 7.13797 9.08995L7.81535 19.16C7.92999 20.68 7.97167 21.25 10.1497 21.25H16.8402C19.0286 21.25 19.0703 20.68 19.1745 19.16L19.8519 9.08995C19.8832 8.67995 20.2583 8.36995 20.6856 8.38995C21.1129 8.41995 21.4463 8.76995 21.4151 9.18995L20.7377 19.26C20.6231 20.82 20.4772 22.75 16.8402 22.75Z" fill="#7A7A7A"/>
<path d="M15.2245 17.25H11.7542C11.327 17.25 10.9727 16.91 10.9727 16.5C10.9727 16.09 11.327 15.75 11.7542 15.75H15.2245C15.6518 15.75 16.0061 16.09 16.0061 16.5C16.0061 16.91 15.6518 17.25 15.2245 17.25Z" fill="#7A7A7A"/>
<path d="M16.1001 13.25H10.8895C10.4622 13.25 10.1079 12.91 10.1079 12.5C10.1079 12.09 10.4622 11.75 10.8895 11.75H16.1001C16.5274 11.75 16.8817 12.09 16.8817 12.5C16.8817 12.91 16.5274 13.25 16.1001 13.25Z" fill="#7A7A7A"/>
</svg>
