<svg width="24" height="24" viewBox="0 0 24 24" fill="none" xmlns="http://www.w3.org/2000/svg">
<path d="M19.1394 5.2299L19.4975 6.1336C19.7997 6.09092 20.0966 6.03018 20.3876 5.95222C20.0839 6.31823 19.7545 6.65297 19.4028 6.95267L19.2183 7.10997L19.2275 7.35229C19.235 7.54834 19.2391 7.74572 19.2391 7.94048C19.2391 10.9472 18.266 14.1823 16.4168 16.6547C14.5754 19.1166 11.8783 20.8104 8.39364 20.8104H8.39298C6.88937 20.8124 5.40444 20.4404 4.03313 19.7221C5.67515 19.5441 7.23625 18.8125 8.52606 17.6193L9.4342 16.7791L8.1973 16.7524C7.49091 16.7371 6.79544 16.4621 6.20948 15.949C5.79498 15.586 5.45038 15.1165 5.20218 14.5736C5.61064 14.5747 6.01849 14.5118 6.41428 14.3856L8.12701 13.8393L6.37818 13.4228C5.60795 13.2394 4.89648 12.7429 4.3759 11.993C3.99377 11.4425 3.73538 10.7845 3.6247 10.0825C4.01881 10.2291 4.43135 10.3128 4.851 10.3285L6.38617 10.3861L5.17897 9.43595C4.70084 9.05964 4.30123 8.54375 4.02228 7.92844C3.74331 7.31311 3.59588 6.62198 3.59623 5.91718V5.91693C3.59623 5.45043 3.65988 5.00227 3.77655 4.58358C4.71084 5.75615 5.81581 6.73415 7.04537 7.46879C8.52745 8.35432 10.1559 8.86541 11.8247 8.96416L12.471 9.0024L12.3446 8.3674C12.162 7.45031 12.2421 6.48843 12.5694 5.63463C12.8968 4.78086 13.4478 4.09504 14.1216 3.66989C14.7928 3.24633 15.5537 3.10073 16.2905 3.2438C17.0292 3.38722 17.7234 3.81719 18.2572 4.48893L18.4537 4.73616L18.7614 4.66498C19.2233 4.55813 19.6752 4.40683 20.1126 4.21347C19.8435 4.62104 19.5134 4.96615 19.1394 5.2299ZM3.23419 19.7647L3.23403 19.2647L19.7271 7.33321C19.7349 7.53496 19.7391 7.73873 19.7391 7.94048C19.7391 14.1503 15.7291 21.3104 8.39364 21.3104C6.54378 21.3129 4.72686 20.779 3.1008 19.7635C3.14508 19.7643 3.18938 19.7647 3.23368 19.7647C3.23385 19.7647 3.23402 19.7647 3.23419 19.7647Z" stroke="#6039CF"/>
</svg>
