<svg width="25" height="24" viewBox="0 0 25 24" fill="none" xmlns="http://www.w3.org/2000/svg">
<path d="M13.3789 9.75H7.37891C6.96891 9.75 6.62891 9.41 6.62891 9C6.62891 8.59 6.96891 8.25 7.37891 8.25H13.3789C13.7889 8.25 14.1289 8.59 14.1289 9C14.1289 9.41 13.7889 9.75 13.3789 9.75Z" fill="#F5F5F5"/>
<path d="M19.4188 14.8002C17.9088 14.8002 16.6288 13.6802 16.5088 12.2402C16.4288 11.4102 16.7288 10.6002 17.3288 10.0102C17.8288 9.49019 18.5388 9.2002 19.2888 9.2002H21.3788C22.3688 9.2302 23.1288 10.0102 23.1288 10.9702V13.0302C23.1288 13.9902 22.3688 14.7702 21.4088 14.8002H19.4188ZM21.3488 10.7002H19.2988C18.9488 10.7002 18.6288 10.8302 18.3988 11.0702C18.1088 11.3502 17.9688 11.7302 18.0088 12.1102C18.0588 12.7702 18.6988 13.3002 19.4188 13.3002H21.3788C21.5088 13.3002 21.6288 13.1802 21.6288 13.0302V10.9702C21.6288 10.8202 21.5088 10.7102 21.3488 10.7002Z" fill="#F5F5F5"/>
<path d="M16.3789 21.25H7.37891C3.93891 21.25 1.62891 18.94 1.62891 15.5V8.5C1.62891 5.42 3.52888 3.19001 6.47888 2.82001C6.74888 2.78001 7.05891 2.75 7.37891 2.75H16.3789C16.6189 2.75 16.9289 2.76 17.2489 2.81C20.1989 3.15 22.1289 5.39 22.1289 8.5V9.95001C22.1289 10.36 21.7889 10.7 21.3789 10.7H19.2989C18.9489 10.7 18.6289 10.83 18.3989 11.07L18.3889 11.08C18.1089 11.35 17.9789 11.72 18.0089 12.1C18.0589 12.76 18.6989 13.29 19.4189 13.29H21.3789C21.7889 13.29 22.1289 13.63 22.1289 14.04V15.49C22.1289 18.94 19.8189 21.25 16.3789 21.25ZM7.37891 4.25C7.13891 4.25 6.90889 4.26999 6.67889 4.29999C4.47889 4.57999 3.12891 6.18 3.12891 8.5V15.5C3.12891 18.08 4.79891 19.75 7.37891 19.75H16.3789C18.9589 19.75 20.6289 18.08 20.6289 15.5V14.8H19.4189C17.9089 14.8 16.6289 13.68 16.5089 12.24C16.4289 11.42 16.7289 10.6 17.3289 10.02C17.8489 9.49002 18.5489 9.20001 19.2989 9.20001H20.6289V8.5C20.6289 6.16 19.2589 4.54998 17.0389 4.28998C16.7989 4.24998 16.5889 4.25 16.3789 4.25H7.37891Z" fill="#F5F5F5"/>
</svg>
