<svg width="47" height="13" viewBox="0 0 47 13" fill="none" xmlns="http://www.w3.org/2000/svg">
<path d="M4.11925 12L0.835155 0.363636H3.1022L5.19879 8.91477H5.30675L7.54538 0.363636H9.60788L11.8522 8.92045H11.9545L14.0511 0.363636H16.3181L13.034 12H10.9545L8.62493 3.83523H8.53402L6.19879 12H4.11925ZM18.9896 12.1761C18.4366 12.1761 17.9385 12.0777 17.4953 11.8807C17.0559 11.6799 16.7074 11.3845 16.4498 10.9943C16.196 10.6042 16.0691 10.1231 16.0691 9.55114C16.0691 9.05871 16.16 8.65152 16.3419 8.32955C16.5237 8.00758 16.7718 7.75 17.0862 7.55682C17.4006 7.36364 17.7547 7.2178 18.1487 7.11932C18.5464 7.01705 18.9574 6.94318 19.3816 6.89773C19.893 6.8447 20.3078 6.79735 20.626 6.75568C20.9441 6.71023 21.1752 6.64205 21.3191 6.55114C21.4669 6.45644 21.5407 6.31061 21.5407 6.11364V6.07955C21.5407 5.65152 21.4138 5.32008 21.16 5.08523C20.9063 4.85038 20.5407 4.73295 20.0635 4.73295C19.5597 4.73295 19.16 4.8428 18.8646 5.0625C18.5729 5.2822 18.376 5.54167 18.2737 5.84091L16.3532 5.56818C16.5047 5.03788 16.7547 4.5947 17.1032 4.23864C17.4517 3.87879 17.8778 3.60985 18.3816 3.43182C18.8854 3.25 19.4422 3.15909 20.0521 3.15909C20.4725 3.15909 20.8911 3.20833 21.3078 3.30682C21.7244 3.4053 22.1051 3.56818 22.4498 3.79545C22.7945 4.01894 23.071 4.32386 23.2794 4.71023C23.4915 5.09659 23.5975 5.57955 23.5975 6.15909V12H21.6203V10.8011H21.5521C21.4271 11.0436 21.251 11.2708 21.0237 11.483C20.8002 11.6913 20.518 11.8598 20.1771 11.9886C19.84 12.1136 19.4441 12.1761 18.9896 12.1761ZM19.5237 10.6648C19.9366 10.6648 20.2945 10.5833 20.5975 10.4205C20.9006 10.2538 21.1335 10.0341 21.2964 9.76136C21.4631 9.48864 21.5464 9.19129 21.5464 8.86932V7.84091C21.482 7.89394 21.3722 7.94318 21.2169 7.98864C21.0653 8.03409 20.8949 8.07386 20.7055 8.10795C20.5161 8.14205 20.3286 8.17235 20.143 8.19886C19.9574 8.22538 19.7964 8.24811 19.66 8.26705C19.3532 8.30871 19.0786 8.37689 18.8362 8.47159C18.5938 8.56629 18.4025 8.69886 18.2623 8.86932C18.1222 9.03598 18.0521 9.25189 18.0521 9.51705C18.0521 9.89583 18.1903 10.1818 18.4669 10.375C18.7434 10.5682 19.0956 10.6648 19.5237 10.6648ZM27.4025 0.363636V12H25.3457V0.363636H27.4025ZM31.2544 0.363636V12H29.1976V0.363636H31.2544ZM36.9131 12.1705C36.0381 12.1705 35.2824 11.9886 34.6461 11.625C34.0135 11.2576 33.5267 10.7386 33.1858 10.0682C32.8449 9.39394 32.6745 8.60038 32.6745 7.6875C32.6745 6.78977 32.8449 6.00189 33.1858 5.32386C33.5305 4.64205 34.0116 4.11174 34.629 3.73295C35.2464 3.35038 35.9718 3.15909 36.8052 3.15909C37.343 3.15909 37.8506 3.24621 38.3279 3.42045C38.8089 3.59091 39.2332 3.85606 39.6006 4.21591C39.9718 4.57576 40.2635 5.03409 40.4756 5.59091C40.6877 6.14394 40.7938 6.80303 40.7938 7.56818V8.19886H33.6404V6.8125H38.8222C38.8184 6.41856 38.7332 6.06818 38.5665 5.76136C38.3999 5.45076 38.1669 5.20644 37.8677 5.02841C37.5722 4.85038 37.2275 4.76136 36.8336 4.76136C36.4131 4.76136 36.0438 4.86364 35.7256 5.06818C35.4074 5.26894 35.1593 5.53409 34.9813 5.86364C34.807 6.18939 34.718 6.54735 34.7142 6.9375V8.14773C34.7142 8.6553 34.807 9.09091 34.9927 9.45455C35.1783 9.81439 35.4377 10.0909 35.7711 10.2841C36.1044 10.4735 36.4945 10.5682 36.9415 10.5682C37.2408 10.5682 37.5116 10.5265 37.754 10.4432C37.9964 10.3561 38.2067 10.2292 38.3847 10.0625C38.5627 9.89583 38.6972 9.68939 38.7881 9.44318L40.7086 9.65909C40.5874 10.1667 40.3563 10.6098 40.0154 10.9886C39.6783 11.3636 39.2464 11.6553 38.7199 11.8636C38.1934 12.0682 37.5911 12.1705 36.9131 12.1705ZM46.5718 3.27273V4.86364H41.5548V3.27273H46.5718ZM42.7934 1.18182H44.8502V9.375C44.8502 9.65152 44.8919 9.86364 44.9752 10.0114C45.0623 10.1553 45.176 10.2538 45.3161 10.3068C45.4563 10.3598 45.6116 10.3864 45.782 10.3864C45.9108 10.3864 46.0282 10.3769 46.1343 10.358C46.2442 10.339 46.3275 10.322 46.3843 10.3068L46.7309 11.9148C46.621 11.9527 46.4639 11.9943 46.2593 12.0398C46.0585 12.0852 45.8123 12.1117 45.5207 12.1193C45.0055 12.1345 44.5415 12.0568 44.1286 11.8864C43.7157 11.7121 43.3881 11.4432 43.1457 11.0795C42.907 10.7159 42.7896 10.2614 42.7934 9.71591V1.18182Z" fill="#F5F5F5"/>
</svg>
