<svg width="24" height="24" viewBox="0 0 24 24" fill="none" xmlns="http://www.w3.org/2000/svg">
<path d="M2.05412 10.1098C2.10899 9.0476 2.21732 7.83037 2.4213 7.06671L2.42134 7.06655C2.51784 6.70595 2.7075 6.37708 2.97129 6.11295C3.23505 5.84886 3.56364 5.6588 3.92407 5.56184C4.28183 5.46618 4.95446 5.3861 5.80411 5.3242C6.63998 5.26331 7.60646 5.22248 8.52645 5.19519C9.44563 5.16792 10.3144 5.15427 10.9536 5.14744C11.2731 5.14403 11.5351 5.14233 11.717 5.14148C11.8079 5.14105 11.8788 5.14084 11.927 5.14073L11.9816 5.14064L11.9955 5.14063L11.9989 5.14063L11.9998 5.14062H12L12 4.64062L12 5.14062H12.0002L12.0011 5.14063L12.0045 5.14063L12.0183 5.14064L12.073 5.14073C12.1212 5.14084 12.1921 5.14105 12.283 5.14148C12.4649 5.14234 12.7268 5.14405 13.0464 5.14748C13.6856 5.15434 14.5543 5.16807 15.4735 5.19548C16.3934 5.22292 17.3599 5.26397 18.1957 5.32518C19.0456 5.38742 19.7182 5.46796 20.0756 5.56409C20.436 5.66141 20.7645 5.85164 21.0282 6.11576C21.2921 6.37997 21.482 6.70886 21.5788 7.0695C21.7827 7.8319 21.891 9.04827 21.9459 10.1101C21.9729 10.6336 21.9865 11.107 21.9932 11.4496C21.9966 11.6208 21.9983 11.759 21.9992 11.8542C21.9996 11.9018 21.9998 11.9385 21.9999 11.9633L22 11.9912L22 11.998L22 11.9996V12V12V12.0004L22 12.002L22 12.0088L21.9999 12.0367C21.9999 12.0455 21.9998 12.0558 21.9997 12.0675C21.9996 12.0889 21.9994 12.1151 21.9992 12.1458C21.9983 12.241 21.9966 12.3792 21.9932 12.5504C21.9865 12.893 21.9729 13.3664 21.9459 13.8899C21.891 14.9519 21.7827 16.1686 21.5787 16.9309L21.5786 16.9312C21.3832 17.6637 20.8076 18.2406 20.0766 18.4357L20.0756 18.4359C19.7182 18.532 19.0456 18.6126 18.1957 18.6748C17.3599 18.736 16.3934 18.7771 15.4735 18.8045C14.5543 18.8319 13.6856 18.8457 13.0464 18.8525C12.7268 18.8559 12.4649 18.8577 12.283 18.8585C12.1921 18.8589 12.1212 18.8592 12.073 18.8593L12.0183 18.8594L12.0045 18.8594L12.0011 18.8594H12.0002H12L12 19.3594L12 18.8594H11.9998H11.9989L11.9955 18.8594L11.9817 18.8594L11.927 18.8593C11.8788 18.8592 11.8079 18.8589 11.717 18.8585C11.5351 18.8577 11.2732 18.8559 10.9536 18.8525C10.3144 18.8457 9.44569 18.8319 8.52653 18.8045C7.60656 18.7771 6.64012 18.736 5.80431 18.6748C4.95439 18.6126 4.28184 18.532 3.92439 18.4359L3.92375 18.4357C3.19432 18.2406 2.61669 17.6632 2.42138 16.9312L2.4213 16.9309C2.21734 16.1686 2.10899 14.9519 2.05412 13.8899C2.02707 13.3664 2.01352 12.893 2.00675 12.5504C2.00337 12.3792 2.00168 12.241 2.00084 12.1458C2.00042 12.0982 2.00021 12.0615 2.0001 12.0367L2.00001 12.0088L2 12.002L2 12.0004L2 12V12V12V12V12L2 11.9996L2 11.998L2.00001 11.9912L2.0001 11.9633C2.00021 11.9385 2.00042 11.9018 2.00084 11.8542C2.00168 11.759 2.00337 11.6208 2.00675 11.4496C2.01352 11.107 2.02707 10.6334 2.05412 10.1098ZM9.41406 15.1406V16.0101L10.1655 15.5728L15.603 12.4087L16.3513 11.9733L15.6002 11.5428L10.1627 8.4256L9.41406 7.9964V8.85938V15.1406Z" stroke="#6039CF"/>
</svg>
